<svg width="26" height="26" viewBox="0 0 26 26" fill="none" xmlns="http://www.w3.org/2000/svg">
<path d="M11.8128 26V23.6256C9.33942 23.3486 7.21708 22.3248 5.44575 20.5542C3.67443 18.7837 2.65065 16.6614 2.37443 14.1872H0V11.8128H2.37443C2.65145 9.33942 3.67562 7.21708 5.44694 5.44575C7.21826 3.67443 9.34021 2.65065 11.8128 2.37443V0H14.1872V2.37443C16.6606 2.65145 18.7829 3.67562 20.5542 5.44694C22.3256 7.21826 23.3493 9.34021 23.6256 11.8128H26V14.1872H23.6256C23.3486 16.6606 22.3248 18.7829 20.5542 20.5542C18.7837 22.3256 16.6614 23.3493 14.1872 23.6256V26H11.8128ZM13 21.3105C15.2953 21.3105 17.2542 20.4992 18.8767 18.8767C20.4992 17.2542 21.3105 15.2953 21.3105 13C21.3105 10.7047 20.4992 8.74581 18.8767 7.12329C17.2542 5.50076 15.2953 4.6895 13 4.6895C10.7047 4.6895 8.74581 5.50076 7.12329 7.12329C5.50076 8.74581 4.6895 10.7047 4.6895 13C4.6895 15.2953 5.50076 17.2542 7.12329 18.8767C8.74581 20.4992 10.7047 21.3105 13 21.3105ZM13 17.7489C11.6941 17.7489 10.5761 17.2839 9.64612 16.3539C8.71613 15.4239 8.25114 14.3059 8.25114 13C8.25114 11.6941 8.71613 10.5761 9.64612 9.64612C10.5761 8.71613 11.6941 8.25114 13 8.25114C14.3059 8.25114 15.4239 8.71613 16.3539 9.64612C17.2839 10.5761 17.7489 11.6941 17.7489 13C17.7489 14.3059 17.2839 15.4239 16.3539 16.3539C15.4239 17.2839 14.3059 17.7489 13 17.7489ZM13 15.3744C13.653 15.3744 14.2121 15.1421 14.6775 14.6775C15.1429 14.2129 15.3752 13.6538 15.3744 13C15.3744 12.347 15.1417 11.7879 14.6763 11.3225C14.211 10.8571 13.6522 10.6248 13 10.6256C12.347 10.6256 11.7879 10.8583 11.3225 11.3237C10.8571 11.789 10.6248 12.3478 10.6256 13C10.6256 13.653 10.8583 14.2121 11.3237 14.6775C11.789 15.1429 12.3478 15.3752 13 15.3744Z" fill="white"/>
</svg>
