<?xml version="1.0" encoding="utf-8"?>
<!-- Generator: Adobe Illustrator 22.1.0, SVG Export Plug-In . SVG Version: 6.00 Build 0)  -->
<svg version="1.1" xmlns="http://www.w3.org/2000/svg" xmlns:xlink="http://www.w3.org/1999/xlink" x="0px" y="0px"
	 viewBox="0 0 36.4 36.6" style="enable-background:new 0 0 36.4 36.6;" xml:space="preserve">
<style type="text/css">
	.st0{display:none;}
	.st1{display:inline;}
	.st2{fill:#FFFFFF;stroke:#FFFFFF;stroke-width:2;stroke-linecap:round;stroke-linejoin:round;stroke-miterlimit:10;}
	.st3{fill:none;stroke:#FFFFFF;stroke-width:2;stroke-linecap:round;stroke-linejoin:round;stroke-miterlimit:10;}
	.st4{display:inline;fill:#898989;stroke:#FFFFFF;stroke-width:2;stroke-miterlimit:10;}
	.st5{opacity:0.75;clip-path:url(#SVGID_2_);fill:url(#SVGID_3_);}
	.st6{fill:none;stroke:#FFFFFF;stroke-width:2;stroke-miterlimit:10;}
	.st7{opacity:0.15;clip-path:url(#SVGID_5_);fill:url(#SVGID_6_);}
	.st8{opacity:0.75;clip-path:url(#SVGID_8_);fill:url(#SVGID_9_);}
	.st9{fill:#FFFFFF;}
	.st10{opacity:0.3;clip-path:url(#SVGID_11_);fill:url(#SVGID_12_);}
	.st11{opacity:0.3;clip-path:url(#SVGID_14_);fill:url(#SVGID_15_);}
	.st12{fill:none;stroke:#FFFFFF;stroke-width:3;stroke-linecap:round;stroke-linejoin:round;stroke-miterlimit:10;}
	.st13{opacity:0.65;clip-path:url(#SVGID_17_);fill:url(#SVGID_18_);}
	.st14{opacity:0.35;clip-path:url(#SVGID_20_);fill:url(#SVGID_21_);}
	.st15{opacity:0.65;clip-path:url(#SVGID_23_);fill:url(#SVGID_24_);}
	.st16{opacity:0.77;clip-path:url(#SVGID_26_);fill:url(#SVGID_27_);}
	.st17{fill:none;stroke:#FFFFFF;stroke-width:3;stroke-miterlimit:10;}
</style>
<g id="레이어_3" class="st0">
	<g class="st1">
		<path class="st2" d="M28.4,27.7c4.2-4.8,1.5-13.6-4.6-13.7c0,0-0.1,0-0.1,0c-3,0-5.6,1.8-7,4.6c-1.5-2.7-4-4.6-7-4.6
			c0,0-0.1,0-0.1,0c-6,0.1-8.7,8.9-4.6,13.7c6.8,7.8,11.7,11.5,11.7,11.5C23.1,34.1,22.9,34,28.4,27.7z"/>
		<path class="st3" d="M9.5,14"/>
		<path class="st3" d="M16.6,39.1c6.5-5,6.3-5.2,11.7-11.5c4.2-4.8,1.5-13.6-4.6-13.7c0,0-0.1,0-0.1,0c-3,0-5.6,1.8-7,4.6"/>
	</g>
</g>
<g id="레이어_7" class="st0">
	<rect x="-9.5" y="-4" class="st4" width="55.9" height="54.8"/>
</g>
<g id="레이어_2" class="st0">
	<g class="st1">
		<g>
			<path class="st3" d="M3,38.6c1.1-6.8,6.1-11.9,12-11.9c5.9,0,10.9,5.1,12,11.8L3,38.6z"/>
			<g>
				<defs>
					<path id="SVGID_1_" d="M3,39.6c-0.3,0-0.6-0.1-0.8-0.4C2.1,39,2,38.7,2,38.4c1.2-7.4,6.7-12.7,13-12.7c6.3,0,11.7,5.3,13,12.7
						c0,0.3,0,0.6-0.2,0.8c-0.2,0.2-0.5,0.4-0.8,0.4L3,39.6C3,39.6,3,39.6,3,39.6z M15.1,27.7c-5,0-9.4,4.1-10.8,9.9l21.6-0.1
						C24.4,31.7,20,27.7,15.1,27.7z"/>
				</defs>
				<clipPath id="SVGID_2_">
					<use xlink:href="#SVGID_1_"  style="overflow:visible;"/>
				</clipPath>
				
					<radialGradient id="SVGID_3_" cx="-175.1129" cy="-136.1442" r="20.9373" gradientTransform="matrix(9.787438e-03 -0.7009 0.9999 1.396278e-02 152.7867 -99.6466)" gradientUnits="userSpaceOnUse">
					<stop  offset="0" style="stop-color:#040000"/>
					<stop  offset="1" style="stop-color:#FFFFFF;stop-opacity:0"/>
				</radialGradient>
				<path class="st5" d="M15.1,6.5c11.6,0.2,20.8,6.9,20.7,15c-0.1,8.1-9.6,14.5-21.1,14.4S-6.1,29-6,20.9S3.6,6.4,15.1,6.5z"/>
			</g>
			<circle class="st6" cx="15.1" cy="20" r="6.6"/>
			<line class="st3" x1="29.8" y1="24.6" x2="23" y2="24.6"/>
			<g>
				<defs>
					<path id="SVGID_4_" d="M29.8,25.6H23c-0.6,0-1-0.4-1-1c0-0.6,0.4-1,1-1h6.8c0.6,0,1,0.4,1,1C30.8,25.1,30.3,25.6,29.8,25.6z"/>
				</defs>
				<clipPath id="SVGID_5_">
					<use xlink:href="#SVGID_4_"  style="overflow:visible;"/>
				</clipPath>
				
					<radialGradient id="SVGID_6_" cx="-179.3214" cy="-124.6671" r="6.2073" gradientTransform="matrix(9.787438e-03 -0.7009 0.9999 1.396278e-02 152.7867 -99.6466)" gradientUnits="userSpaceOnUse">
					<stop  offset="0" style="stop-color:#040000"/>
					<stop  offset="1" style="stop-color:#FFFFFF;stop-opacity:0"/>
				</radialGradient>
				<path class="st7" d="M26.4,19.9c3.4,0,6.2,2,6.1,4.4c0,2.4-2.8,4.3-6.3,4.3s-6.2-2-6.1-4.4C20.2,21.8,23,19.9,26.4,19.9z"/>
			</g>
			<line class="st3" x1="26.4" y1="21.2" x2="26.4" y2="28"/>
		</g>
	</g>
</g>
<g id="레이어_4" class="st0">
	<g class="st1">
		<path class="st3" d="M26.8,24.9c4-4.1,1.4-11.7-4.4-11.8c0,0-0.1,0-0.1,0c-2.9,0-5.3,1.6-6.7,4c-1.4-2.4-3.9-4-6.7-4
			c0,0-0.1,0-0.1,0C3,13.1,0.5,20.8,4.4,24.9c6.5,6.8,11.2,9.9,11.2,9.9C21.8,30.4,21.6,30.3,26.8,24.9z"/>
		<g>
			<defs>
				<path id="SVGID_7_" d="M15.6,35l-0.5,0.5c-0.2-0.1-4.9-3.3-11.4-10c-2.2-2.2-2.7-5.7-1.5-8.7c1.2-2.8,3.6-4.5,6.4-4.6l0.1,0
					c2.6,0,5.1,1.2,6.7,3.3c1.7-2.1,4.1-3.3,6.7-3.3l0.1,0c2.9,0,5.3,1.8,6.5,4.6c1.3,3,0.7,6.4-1.5,8.7l0,0c-0.7,0.8-1.3,1.4-1.9,2
					c-3.4,3.6-4,4.2-9.5,8L15.6,35z M8.9,13.9l-0.1,0c-2.2,0-4,1.3-4.9,3.5c-1,2.4-0.6,5.1,1.1,6.8c5.2,5.4,9.3,8.5,10.6,9.5
					c4.8-3.4,5.4-4,8.7-7.5c0.5-0.6,1.2-1.2,1.9-2l0,0c1.7-1.8,2.2-4.5,1.2-6.8c-0.9-2.2-2.7-3.5-4.9-3.5l-0.1,0
					c-2.5,0-4.7,1.3-6,3.5l-0.7,0.4l-0.7-0.4C13.6,15.2,11.3,13.9,8.9,13.9z"/>
			</defs>
			<clipPath id="SVGID_8_">
				<use xlink:href="#SVGID_7_"  style="overflow:visible;"/>
			</clipPath>
			
				<radialGradient id="SVGID_9_" cx="1.963" cy="38.294" r="18.0969" gradientTransform="matrix(0.7009 9.787438e-03 -1.396278e-02 0.9999 15.1993 -12.5821)" gradientUnits="userSpaceOnUse">
				<stop  offset="0" style="stop-color:#040000"/>
				<stop  offset="1" style="stop-color:#FFFFFF;stop-opacity:0"/>
			</radialGradient>
			<path class="st8" d="M28.7,25.9c-0.1,10-5.9,18-12.9,17.9c-7-0.1-12.6-8.3-12.4-18.3c0.1-10,5.9-18,12.9-17.9
				S28.9,15.9,28.7,25.9z"/>
		</g>
		<path class="st3" d="M8.8,13"/>
		<path class="st3" d="M15.6,34.8c6.2-4.4,6-4.5,11.2-9.9c4-4.1,1.4-11.7-4.4-11.8c0,0-0.1,0-0.1,0c-2.9,0-5.3,1.6-6.7,4"/>
	</g>
</g>
<g id="레이어_5" class="st0">
	<g class="st1">
		<path class="st2" d="M26.8,24.9c4-4.1,1.4-11.7-4.4-11.8c0,0-0.1,0-0.1,0c-2.9,0-5.3,1.6-6.7,4c-1.4-2.4-3.9-4-6.7-4
			c0,0-0.1,0-0.1,0C3,13.1,0.5,20.8,4.4,24.9c6.5,6.8,11.2,9.9,11.2,9.9C21.8,30.4,21.6,30.3,26.8,24.9z"/>
		<path class="st3" d="M8.8,13"/>
		<path class="st3" d="M15.6,34.8c6.2-4.4,6-4.5,11.2-9.9c4-4.1,1.4-11.7-4.4-11.8c0,0-0.1,0-0.1,0c-2.9,0-5.3,1.6-6.7,4"/>
	</g>
</g>
<g id="레이어_6" class="st0">
	<g class="st1">
		<path class="st9" d="M8.4,35.3c-0.2,0-0.5-0.1-0.7-0.3l-5.2-5.2c-0.4-0.4-0.4-1,0-1.3c0.4-0.4,1-0.4,1.3,0l5.2,5.2
			c0.4,0.4,0.4,1,0,1.3C8.9,35.2,8.7,35.3,8.4,35.3z"/>
		<path class="st9" d="M20.7,23c-0.2,0-0.5-0.1-0.7-0.3l-5.2-5.2c-0.4-0.4-0.4-1,0-1.3c0.4-0.4,1-0.4,1.3,0l5.2,5.2
			c0.4,0.4,0.4,1,0,1.3C21.2,22.9,21,23,20.7,23z"/>
		<g>
			<defs>
				<path id="SVGID_10_" d="M20.7,23c-0.2,0-0.5-0.1-0.7-0.3l-5.2-5.2c-0.4-0.4-0.4-1,0-1.3c0.4-0.4,1-0.4,1.3,0l5.2,5.2
					c0.4,0.4,0.4,1,0,1.3C21.2,22.9,21,23,20.7,23z"/>
			</defs>
			<clipPath id="SVGID_11_">
				<use xlink:href="#SVGID_10_"  style="overflow:visible;"/>
			</clipPath>
			<radialGradient id="SVGID_12_" cx="12.1691" cy="15.9998" r="8.9527" gradientUnits="userSpaceOnUse">
				<stop  offset="0" style="stop-color:#040000"/>
				<stop  offset="1" style="stop-color:#FFFFFF;stop-opacity:0"/>
			</radialGradient>
			<circle class="st10" cx="12.2" cy="16" r="9"/>
		</g>
		<g>
			<defs>
				<path id="SVGID_13_" d="M8.4,35.3c-0.2,0-0.5-0.1-0.7-0.3l-5.2-5.2c-0.4-0.4-0.4-1,0-1.3c0.4-0.4,1-0.4,1.3,0l5.2,5.2
					c0.4,0.4,0.4,1,0,1.3C8.9,35.2,8.7,35.3,8.4,35.3z"/>
			</defs>
			<clipPath id="SVGID_14_">
				<use xlink:href="#SVGID_13_"  style="overflow:visible;"/>
			</clipPath>
			<radialGradient id="SVGID_15_" cx="10.7669" cy="37.1477" r="8.9527" gradientUnits="userSpaceOnUse">
				<stop  offset="0" style="stop-color:#040000"/>
				<stop  offset="1" style="stop-color:#FFFFFF;stop-opacity:0"/>
			</radialGradient>
			<circle class="st11" cx="10.8" cy="37.1" r="9"/>
		</g>
		<path class="st3" d="M7.8,35L24,18.8c0.3-0.3,0.3-0.9,0-1.2l-3.9-3.9c-0.4-0.4-1-0.4-1.4,0L17,15.4L2.6,29.8V35H7.8z"/>
		<line class="st3" x1="13.6" y1="35" x2="24.6" y2="35"/>
		<path class="st3" d="M2.6,29.8"/>
	</g>
</g>
<g id="레이어_8" class="st0">
	<g class="st1">
		<polyline class="st12" points="30.4,38.7 14.2,22.5 30.1,6.6 14.2,22.5 		"/>
	</g>
	<g class="st1">
		<defs>
			<path id="SVGID_16_" d="M30.4,40.2c-0.4,0-0.8-0.1-1.1-0.4L13.2,23.6c-0.6-0.6-0.6-1.5,0-2.1L29.1,5.6c0.6-0.6,1.5-0.6,2.1,0
				c0.6,0.6,0.6,1.5,0,2.1L16.4,22.5l15.1,15.1c0.6,0.6,0.6,1.5,0,2.1C31.2,40.1,30.8,40.2,30.4,40.2z"/>
		</defs>
		<clipPath id="SVGID_17_">
			<use xlink:href="#SVGID_16_"  style="overflow:visible;"/>
		</clipPath>
		
			<radialGradient id="SVGID_18_" cx="-8.3238" cy="28.4994" r="18.7975" gradientTransform="matrix(0.8976 9.698372e-02 -0.1074 0.9942 16.7449 -7.5906)" gradientUnits="userSpaceOnUse">
			<stop  offset="0" style="stop-color:#040000"/>
			<stop  offset="1" style="stop-color:#FFFFFF;stop-opacity:0"/>
		</radialGradient>
		<path class="st13" d="M23.1,21.8C22,32.1,13.5,39.6,4.2,38.6c-9.3-1-16-10.2-14.9-20.5S-1.1,0.2,8.2,1.2S24.2,11.4,23.1,21.8z"/>
	</g>
	<g class="st1">
		<path class="st12" d="M14.2,22.5"/>
		<line class="st12" x1="30.4" y1="38.7" x2="14.2" y2="22.5"/>
	</g>
</g>
<g id="레이어_9" class="st0">
	<g id="로그아웃_1_" class="st1">
		<polyline class="st12" points="10.5,10.3 10.5,2.4 33.8,2.4 33.8,35.3 10.5,35.3 10.5,27.4 		"/>
		<polyline class="st12" points="17.9,19.2 3.8,19.2 8.3,14.7 		"/>
		<g>
			<defs>
				<path id="SVGID_19_" d="M17.9,20.7H3.8c-0.6,0-1.2-0.4-1.4-0.9c-0.2-0.6-0.1-1.2,0.3-1.6l4.5-4.5c0.6-0.6,1.5-0.6,2.1,0
					c0.6,0.6,0.6,1.5,0,2.1l-1.9,1.9h10.6c0.8,0,1.5,0.7,1.5,1.5S18.8,20.7,17.9,20.7z"/>
			</defs>
			<clipPath id="SVGID_20_">
				<use xlink:href="#SVGID_19_"  style="overflow:visible;"/>
			</clipPath>
			
				<radialGradient id="SVGID_21_" cx="-11.7464" cy="27.8274" r="18.7975" gradientTransform="matrix(0.8976 9.698372e-02 -0.1074 0.9942 16.7449 -7.5906)" gradientUnits="userSpaceOnUse">
				<stop  offset="0" style="stop-color:#040000"/>
				<stop  offset="1" style="stop-color:#FFFFFF;stop-opacity:0"/>
			</radialGradient>
			<path class="st14" d="M20.1,20.8C19,31.1,10.5,38.6,1.2,37.6c-9.3-1-16-10.2-14.9-20.5S-4.1-0.8,5.2,0.2S21.2,10.4,20.1,20.8z"/>
		</g>
		<line class="st12" x1="3.8" y1="19.2" x2="8.3" y2="23.7"/>
	</g>
	<g class="st1">
		<defs>
			<path id="SVGID_22_" d="M33.8,36.8H10.5c-0.8,0-1.5-0.7-1.5-1.5v-7.9c0-0.8,0.7-1.5,1.5-1.5s1.5,0.7,1.5,1.5v6.4h20.3V3.9H12v6.4
				c0,0.8-0.7,1.5-1.5,1.5S9,11.1,9,10.3V2.4c0-0.8,0.7-1.5,1.5-1.5h23.3c0.8,0,1.5,0.7,1.5,1.5v32.9C35.3,36.1,34.6,36.8,33.8,36.8
				z"/>
		</defs>
		<clipPath id="SVGID_23_">
			<use xlink:href="#SVGID_22_"  style="overflow:visible;"/>
		</clipPath>
		
			<radialGradient id="SVGID_24_" cx="-11.4572" cy="26.4849" r="18.7975" gradientTransform="matrix(0.8976 9.698372e-02 -0.1074 0.9942 16.7449 -7.5906)" gradientUnits="userSpaceOnUse">
			<stop  offset="0" style="stop-color:#040000"/>
			<stop  offset="1" style="stop-color:#FFFFFF;stop-opacity:0"/>
		</radialGradient>
		<path class="st15" d="M20.5,19.5c-1.1,10.3-9.6,17.9-18.9,16.9c-9.3-1-16-10.2-14.9-20.5S-3.7-2.1,5.6-1.1S21.6,9.1,20.5,19.5z"/>
	</g>
</g>
<g id="레이어_11">
	<g>
		<line class="st12" x1="34.9" y1="35.1" x2="24.7" y2="25"/>
		<path class="st12" d="M6.8,15.2c0-2.6,1.2-5,3.1-6.5"/>
		<g>
			<defs>
				<path id="SVGID_25_" d="M34.9,36.6c-0.4,0-0.8-0.1-1.1-0.4L23.7,26c-0.6-0.6-0.6-1.5,0-2.1c0.6-0.6,1.5-0.6,2.1,0L35.9,34
					c0.6,0.6,0.6,1.5,0,2.1C35.6,36.5,35.2,36.6,34.9,36.6z"/>
			</defs>
			<clipPath id="SVGID_26_">
				<use xlink:href="#SVGID_25_"  style="overflow:visible;"/>
			</clipPath>
			
				<radialGradient id="SVGID_27_" cx="8.7701" cy="27.3266" r="18.7975" gradientTransform="matrix(0.8976 9.698372e-02 -0.1074 0.9942 16.7449 -7.5906)" gradientUnits="userSpaceOnUse">
				<stop  offset="0" style="stop-color:#040000"/>
				<stop  offset="1" style="stop-color:#FFFFFF;stop-opacity:0"/>
			</radialGradient>
			<path class="st16" d="M38.6,22.3C37.4,32.6,29,40.1,19.7,39.1c-9.3-1-16-10.2-14.9-20.5S14.4,0.7,23.7,1.7S39.7,11.9,38.6,22.3z"
				/>
		</g>
		<circle class="st17" cx="15.2" cy="15.2" r="13.7"/>
	</g>
	<line class="st12" x1="13.8" y1="21.2" x2="18.3" y2="16.7"/>
</g>
</svg>
