<?xml version="1.0" encoding="utf-8"?>
<!-- Generator: Adobe Illustrator 22.1.0, SVG Export Plug-In . SVG Version: 6.00 Build 0)  -->
<svg version="1.1" xmlns="http://www.w3.org/2000/svg" xmlns:xlink="http://www.w3.org/1999/xlink" x="0px" y="0px"
	 viewBox="0 0 44.7 44" style="enable-background:new 0 0 44.7 44;" xml:space="preserve">
<style type="text/css">
	.st0{display:none;}
	.st1{display:inline;}
	.st2{opacity:0.5;fill:#FFFFFF;}
	.st3{opacity:0.3;clip-path:url(#SVGID_2_);fill:url(#SVGID_3_);}
	.st4{fill:#FFFFFF;}
	.st5{opacity:0.3;clip-path:url(#SVGID_5_);fill:url(#SVGID_6_);}
	.st6{opacity:0.3;clip-path:url(#SVGID_8_);fill:url(#SVGID_9_);}
	.st7{opacity:0.3;clip-path:url(#SVGID_8_);fill:url(#SVGID_10_);}
	.st8{opacity:0.3;clip-path:url(#SVGID_12_);fill:url(#SVGID_13_);}
	.st9{clip-path:url(#SVGID_12_);fill:#FFFFFF;}
	.st10{fill:none;stroke:#FFFFFF;stroke-width:4;stroke-linecap:round;stroke-miterlimit:10;}
	.st11{fill:#898989;}
	.st12{opacity:0.3;clip-path:url(#SVGID_15_);fill:url(#SVGID_16_);}
	.st13{opacity:0.3;clip-path:url(#SVGID_18_);fill:url(#SVGID_19_);}
	.st14{opacity:0.3;clip-path:url(#SVGID_18_);fill:url(#SVGID_20_);}
	.st15{opacity:0.3;clip-path:url(#SVGID_22_);fill:url(#SVGID_23_);}
	.st16{clip-path:url(#SVGID_22_);fill:#898989;}
	.st17{fill:none;stroke:#F7D071;stroke-width:4;stroke-linecap:round;stroke-miterlimit:10;}
	.st18{fill:#F7D071;}
	.st19{fill:#F5A73B;}
	.st20{fill:none;stroke:#F5A73B;stroke-width:4;stroke-linecap:round;stroke-miterlimit:10;}
	.st21{opacity:0.3;clip-path:url(#SVGID_25_);fill:url(#SVGID_26_);}
</style>
<g id="레이어_1" class="st0">
	<g class="st1">
		<path class="st2" d="M42.8,44H26c-1,0-1.9-0.8-1.9-1.9s0.8-1.9,1.9-1.9h16.8c1,0,1.9,0.8,1.9,1.9S43.8,44,42.8,44z"/>
		<g>
			<defs>
				<path id="SVGID_1_" d="M42.8,44H26.1c-1,0-1.9-0.8-1.9-1.9s0.8-1.9,1.9-1.9h16.8c1,0,1.9,0.8,1.9,1.9S43.9,44,42.8,44z"/>
			</defs>
			<clipPath id="SVGID_2_">
				<use xlink:href="#SVGID_1_"  style="overflow:visible;"/>
			</clipPath>
			<radialGradient id="SVGID_3_" cx="46.9474" cy="62.2988" r="18.7975" gradientUnits="userSpaceOnUse">
				<stop  offset="0" style="stop-color:#040000"/>
				<stop  offset="1" style="stop-color:#FFFFFF;stop-opacity:0"/>
			</radialGradient>
			<circle class="st3" cx="46.9" cy="62.3" r="18.8"/>
		</g>
		<path class="st4" d="M19.1,36.8c-0.1,0-0.3,0-0.4-0.1C12,35.1,7.3,29.1,7.3,22.2c0-4.2,1.8-8.2,4.9-11c0.8-0.7,1.9-0.6,2.6,0.1
			c0.7,0.8,0.6,1.9-0.1,2.6c-2.3,2.1-3.6,5.1-3.6,8.2c0,5.2,3.5,9.6,8.5,10.9c1,0.2,1.6,1.3,1.4,2.3C20.7,36.2,20,36.8,19.1,36.8z"
			/>
		<g>
			<defs>
				<path id="SVGID_4_" d="M19.1,36.8c-0.1,0-0.3,0-0.4-0.1C12,35.1,7.3,29.1,7.3,22.2c0-4.2,1.8-8.2,4.9-11
					c0.8-0.7,1.9-0.6,2.6,0.1c0.7,0.8,0.6,1.9-0.1,2.6c-2.3,2.1-3.6,5.1-3.6,8.2c0,5.2,3.5,9.6,8.5,10.9c1,0.2,1.6,1.3,1.4,2.3
					C20.7,36.2,20,36.8,19.1,36.8z"/>
			</defs>
			<clipPath id="SVGID_5_">
				<use xlink:href="#SVGID_4_"  style="overflow:visible;"/>
			</clipPath>
			<radialGradient id="SVGID_6_" cx="22.1906" cy="35.0112" r="18.7975" gradientUnits="userSpaceOnUse">
				<stop  offset="0" style="stop-color:#040000"/>
				<stop  offset="1" style="stop-color:#FFFFFF;stop-opacity:0"/>
			</radialGradient>
			<circle class="st5" cx="22.2" cy="35" r="18.8"/>
		</g>
		<path class="st4" d="M26.4,36.4c-0.8,0-1.5-0.5-1.8-1.3c-0.3-1,0.2-2,1.2-2.4c4.5-1.5,7.6-5.8,7.6-10.6c0-6.2-5-11.2-11.2-11.2
			c-0.5,0-1,0-1.4,0.1c-0.2,0-0.7,0.1-1.2,0.2c-1,0.2-2-0.4-2.2-1.4c-0.2-1,0.4-2,1.4-2.2c0.5-0.1,1.1-0.2,1.6-0.3
			c0.6-0.1,1.3-0.1,1.9-0.1c8.2,0,14.9,6.7,14.9,14.9c0,6.4-4.1,12.1-10.1,14.1C26.8,36.4,26.6,36.4,26.4,36.4z"/>
		<g>
			<defs>
				<path id="SVGID_7_" d="M26.4,36.4c-0.8,0-1.5-0.5-1.8-1.3c-0.3-1,0.2-2,1.2-2.4c4.5-1.5,7.6-5.8,7.6-10.6
					c0-6.2-5-11.2-11.2-11.2c-0.5,0-1,0-1.4,0.1c-0.2,0-0.7,0.1-1.2,0.2c-1,0.2-2-0.4-2.2-1.4c-0.2-1,0.4-2,1.4-2.2
					c0.5-0.1,1.1-0.2,1.6-0.3c0.6-0.1,1.3-0.1,1.9-0.1c8.2,0,14.9,6.7,14.9,14.9c0,6.4-4.1,12.1-10.1,14.1
					C26.8,36.4,26.6,36.4,26.4,36.4z"/>
			</defs>
			<clipPath id="SVGID_8_">
				<use xlink:href="#SVGID_7_"  style="overflow:visible;"/>
			</clipPath>
			<radialGradient id="SVGID_9_" cx="22.3779" cy="38.3307" r="18.7975" gradientUnits="userSpaceOnUse">
				<stop  offset="0" style="stop-color:#040000"/>
				<stop  offset="1" style="stop-color:#FFFFFF;stop-opacity:0"/>
			</radialGradient>
			<circle class="st6" cx="22.4" cy="38.3" r="18.8"/>
			<radialGradient id="SVGID_10_" cx="14.925" cy="10.6641" r="18.7975" gradientUnits="userSpaceOnUse">
				<stop  offset="0" style="stop-color:#040000"/>
				<stop  offset="1" style="stop-color:#FFFFFF;stop-opacity:0"/>
			</radialGradient>
			<circle class="st7" cx="14.9" cy="10.7" r="18.8"/>
		</g>
		<path class="st4" d="M26.3,44c-0.9,0-1.6-0.6-1.8-1.5c-0.2-1,0.4-2,1.5-2.2c7.7-1.6,13.5-7.9,14.5-15.7c0.6-4.9-0.7-9.7-3.7-13.6
			c-3-3.9-7.4-6.4-12.3-7C14.4,2.6,5.2,9.8,3.9,19.8C2.7,29,8.5,37.6,17.4,40c1,0.3,1.6,1.3,1.3,2.3c-0.3,1-1.3,1.6-2.3,1.3
			C5.8,40.8-1.2,30.3,0.2,19.4C1.7,7.2,12.9-1.4,25,0.2c5.9,0.8,11.1,3.8,14.7,8.4c3.6,4.7,5.2,10.5,4.5,16.4
			C43,34.4,36,42,26.7,43.9C26.6,43.9,26.5,44,26.3,44z"/>
		<g>
			<defs>
				<path id="SVGID_11_" d="M26.3,44c-0.9,0-1.6-0.6-1.8-1.5c-0.2-1,0.4-2,1.5-2.2c7.7-1.6,13.5-7.9,14.5-15.7
					c0.6-4.9-0.7-9.7-3.7-13.6c-3-3.9-7.4-6.4-12.3-7C14.4,2.6,5.2,9.8,3.9,19.8C2.7,29,8.5,37.6,17.4,40c1,0.3,1.6,1.3,1.3,2.3
					c-0.3,1-1.3,1.6-2.3,1.3C5.8,40.8-1.2,30.3,0.2,19.4C1.7,7.2,12.9-1.4,25,0.2c5.9,0.8,11.1,3.8,14.7,8.4
					c3.6,4.7,5.2,10.5,4.5,16.4C43,34.4,36,42,26.7,43.9C26.6,43.9,26.5,44,26.3,44z"/>
			</defs>
			<clipPath id="SVGID_12_">
				<use xlink:href="#SVGID_11_"  style="overflow:visible;"/>
			</clipPath>
			
				<radialGradient id="SVGID_13_" cx="10.7907" cy="51.2354" r="18.7975" gradientTransform="matrix(0.8976 9.698372e-02 -0.1074 0.9942 16.7525 -8.0258)" gradientUnits="userSpaceOnUse">
				<stop  offset="0" style="stop-color:#040000"/>
				<stop  offset="1" style="stop-color:#FFFFFF;stop-opacity:0"/>
			</radialGradient>
			<path class="st8" d="M37.8,45.8c-1.1,10.3-9.6,17.9-18.9,16.9c-9.3-1-16-10.2-14.9-20.5S13.6,24.3,23,25.3S38.9,35.5,37.8,45.8z"
				/>
			<rect x="-4" y="-2.1" class="st9" width="25" height="68.9"/>
		</g>
		<line class="st10" x1="26" y1="17.2" x2="26" y2="42"/>
		<g>
			<path class="st4" d="M27.7,18.6L27.7,18.6L27.7,18.6 M26,14.3c-2,0-3.6,2.3-3.6,5.2s1.6,5.2,3.6,5.2s3.6-2.3,3.6-5.2
				S28,14.3,26,14.3L26,14.3z"/>
		</g>
		<g>
			<path class="st4" d="M21,35.6c0,0.1,0,0.2-0.1,0.4c-0.3,0.6-0.9,0.9-1.6,0.9c-2.5-0.3-4.7-1.8-4.7-9.9c0-5.4,2.8-9.8,6.4-9.8
				V35.6z"/>
		</g>
		<line class="st10" x1="19.1" y1="9.5" x2="19.1" y2="34.9"/>
	</g>
</g>
<g id="레이어_2">
	<g>
		<path class="st2" d="M43,44H26.3c-1,0-1.9-0.8-1.9-1.9s0.8-1.9,1.9-1.9H43c1,0,1.9,0.8,1.9,1.9S44.1,44,43,44z"/>
		<path class="st11" d="M19.3,36.8c-0.1,0-0.3,0-0.4-0.1c-6.7-1.6-11.4-7.6-11.4-14.5c0-4.2,1.8-8.2,4.9-11c0.8-0.7,1.9-0.6,2.6,0.1
			c0.7,0.8,0.6,1.9-0.1,2.6c-2.3,2.1-3.6,5.1-3.6,8.2c0,5.2,3.5,9.6,8.5,10.9c1,0.2,1.6,1.3,1.4,2.3C21,36.2,20.2,36.8,19.3,36.8z"
			/>
		<g>
			<defs>
				<path id="SVGID_14_" d="M19.3,36.8c-0.1,0-0.3,0-0.4-0.1c-6.7-1.6-11.4-7.6-11.4-14.5c0-4.2,1.8-8.2,4.9-11
					c0.8-0.7,1.9-0.6,2.6,0.1c0.7,0.8,0.6,1.9-0.1,2.6c-2.3,2.1-3.6,5.1-3.6,8.2c0,5.2,3.5,9.6,8.5,10.9c1,0.2,1.6,1.3,1.4,2.3
					C21,36.2,20.2,36.8,19.3,36.8z"/>
			</defs>
			<clipPath id="SVGID_15_">
				<use xlink:href="#SVGID_14_"  style="overflow:visible;"/>
			</clipPath>
			<radialGradient id="SVGID_16_" cx="22.4303" cy="35.0627" r="18.7975" gradientUnits="userSpaceOnUse">
				<stop  offset="0" style="stop-color:#040000"/>
				<stop  offset="1" style="stop-color:#FFFFFF;stop-opacity:0"/>
			</radialGradient>
			<circle class="st12" cx="22.4" cy="35.1" r="18.8"/>
		</g>
		<path class="st11" d="M26.6,36.5c-0.8,0-1.5-0.5-1.8-1.3c-0.3-1,0.2-2,1.2-2.4c4.5-1.5,7.6-5.8,7.6-10.6c0-6.2-5-11.2-11.2-11.2
			c-0.5,0-1,0-1.4,0.1c-0.2,0-0.7,0.1-1.2,0.2c-1,0.2-2-0.4-2.2-1.4c-0.2-1,0.4-2,1.4-2.2c0.5-0.1,1.1-0.2,1.6-0.3
			c0.6-0.1,1.3-0.1,1.9-0.1c8.2,0,14.9,6.7,14.9,14.9c0,6.4-4.1,12.1-10.1,14.1C27,36.4,26.8,36.5,26.6,36.5z"/>
		<g>
			<defs>
				<path id="SVGID_17_" d="M26.6,36.5c-0.8,0-1.5-0.5-1.8-1.3c-0.3-1,0.2-2,1.2-2.4c4.5-1.5,7.6-5.8,7.6-10.6
					c0-6.2-5-11.2-11.2-11.2c-0.5,0-1,0-1.4,0.1c-0.2,0-0.7,0.1-1.2,0.2c-1,0.2-2-0.4-2.2-1.4c-0.2-1,0.4-2,1.4-2.2
					c0.5-0.1,1.1-0.2,1.6-0.3c0.6-0.1,1.3-0.1,1.9-0.1c8.2,0,14.9,6.7,14.9,14.9c0,6.4-4.1,12.1-10.1,14.1
					C27,36.4,26.8,36.5,26.6,36.5z"/>
			</defs>
			<clipPath id="SVGID_18_">
				<use xlink:href="#SVGID_17_"  style="overflow:visible;"/>
			</clipPath>
			<radialGradient id="SVGID_19_" cx="22.6175" cy="38.3823" r="18.7975" gradientUnits="userSpaceOnUse">
				<stop  offset="0" style="stop-color:#040000"/>
				<stop  offset="1" style="stop-color:#FFFFFF;stop-opacity:0"/>
			</radialGradient>
			<circle class="st13" cx="22.6" cy="38.4" r="18.8"/>
			<radialGradient id="SVGID_20_" cx="15.1647" cy="10.7156" r="18.7975" gradientUnits="userSpaceOnUse">
				<stop  offset="0" style="stop-color:#040000"/>
				<stop  offset="1" style="stop-color:#FFFFFF;stop-opacity:0"/>
			</radialGradient>
			<circle class="st14" cx="15.2" cy="10.7" r="18.8"/>
		</g>
		<path class="st11" d="M26.6,44c-0.9,0-1.6-0.6-1.8-1.5c-0.2-1,0.4-2,1.5-2.2c7.7-1.6,13.5-7.9,14.5-15.7C41.3,19.7,40,14.9,37,11
			c-3-3.9-7.4-6.4-12.3-7C14.7,2.7,5.4,9.8,4.1,19.9C3,29,8.8,37.7,17.6,40.1c1,0.3,1.6,1.3,1.3,2.3c-0.3,1-1.3,1.6-2.3,1.3
			C6,40.8-1,30.4,0.4,19.4C2,7.3,13.1-1.3,25.2,0.2C31.1,1,36.4,4,40,8.7c3.6,4.7,5.2,10.5,4.5,16.4C43.2,34.4,36.2,42,27,44
			C26.8,44,26.7,44,26.6,44z"/>
		<g>
			<defs>
				<path id="SVGID_21_" d="M26.6,44c-0.9,0-1.6-0.6-1.8-1.5c-0.2-1,0.4-2,1.5-2.2c7.7-1.6,13.5-7.9,14.5-15.7
					C41.3,19.7,40,14.9,37,11c-3-3.9-7.4-6.4-12.3-7C14.7,2.7,5.4,9.8,4.1,19.9C3,29,8.8,37.7,17.6,40.1c1,0.3,1.6,1.3,1.3,2.3
					c-0.3,1-1.3,1.6-2.3,1.3C6,40.8-1,30.4,0.4,19.4C2,7.3,13.1-1.3,25.2,0.2C31.1,1,36.4,4,40,8.7c3.6,4.7,5.2,10.5,4.5,16.4
					C43.2,34.4,36.2,42,27,44C26.8,44,26.7,44,26.6,44z"/>
			</defs>
			<clipPath id="SVGID_22_">
				<use xlink:href="#SVGID_21_"  style="overflow:visible;"/>
			</clipPath>
			
				<radialGradient id="SVGID_23_" cx="11.0608" cy="51.2609" r="18.7975" gradientTransform="matrix(0.8976 9.698372e-02 -0.1074 0.9942 16.7525 -8.0258)" gradientUnits="userSpaceOnUse">
				<stop  offset="0" style="stop-color:#040000"/>
				<stop  offset="1" style="stop-color:#FFFFFF;stop-opacity:0"/>
			</radialGradient>
			<path class="st15" d="M38,45.8c-1.1,10.3-9.6,17.9-18.9,16.9c-9.3-1-16-10.2-14.9-20.5s9.6-17.9,18.9-16.9S39.2,35.5,38,45.8z"/>
			<rect x="-3.7" y="-2" class="st16" width="25" height="68.9"/>
		</g>
		<line class="st17" x1="26.3" y1="17.2" x2="26.3" y2="42"/>
		<g>
			<path class="st18" d="M27.9,18.7L27.9,18.7L27.9,18.7 M26.3,14.3c-2,0-3.6,2.3-3.6,5.2s1.6,5.2,3.6,5.2s3.6-2.3,3.6-5.2
				S28.2,14.3,26.3,14.3L26.3,14.3z"/>
		</g>
		<g>
			<path class="st19" d="M21.2,35.6c0,0.1,0,0.2-0.1,0.4c-0.3,0.6-0.9,0.9-1.6,0.9c-2.5-0.3-4.7-1.8-4.7-9.9c0-5.4,2.8-9.8,6.4-9.8
				V35.6z"/>
		</g>
		<line class="st20" x1="19.3" y1="9.6" x2="19.3" y2="34.9"/>
		<g>
			<defs>
				<path id="SVGID_24_" d="M19.1,25.3H2.3c-1,0-1.9-0.8-1.9-1.9c0-1,0.8-1.9,1.9-1.9h16.8c1,0,1.9,0.8,1.9,1.9
					C20.9,24.5,20.1,25.3,19.1,25.3z"/>
			</defs>
			<clipPath id="SVGID_25_">
				<use xlink:href="#SVGID_24_"  style="overflow:visible;"/>
			</clipPath>
			<radialGradient id="SVGID_26_" cx="23.1871" cy="43.6253" r="18.7975" gradientUnits="userSpaceOnUse">
				<stop  offset="0" style="stop-color:#040000"/>
				<stop  offset="1" style="stop-color:#FFFFFF;stop-opacity:0"/>
			</radialGradient>
			<circle class="st21" cx="23.2" cy="43.6" r="18.8"/>
		</g>
	</g>
</g>
</svg>
