<?xml version="1.0" encoding="utf-8"?>
<!-- Generator: Adobe Illustrator 22.1.0, SVG Export Plug-In . SVG Version: 6.00 Build 0)  -->
<svg version="1.1" id="레이어_1" xmlns="http://www.w3.org/2000/svg" xmlns:xlink="http://www.w3.org/1999/xlink" x="0px"
	 y="0px" viewBox="0 0 213 209.8" style="enable-background:new 0 0 213 209.8;" xml:space="preserve">
<style type="text/css">
	.st0{opacity:0.5;}
	.st1{fill:none;stroke:#D4D4D4;stroke-width:15;stroke-linecap:round;stroke-miterlimit:10;}
	.st2{fill:none;stroke:#D4D4D4;stroke-width:15;stroke-linecap:round;stroke-linejoin:round;}
	.st3{fill:none;stroke:#FFAC36;stroke-width:15;stroke-linecap:round;stroke-miterlimit:10;}
	.st4{fill:#FFD571;}
	.st5{fill:#FFAC36;}
	.st6{opacity:0.5;fill:none;stroke:#D4D4D4;stroke-width:15;stroke-linecap:round;stroke-miterlimit:10;enable-background:new    ;}
	.st7{fill:none;stroke:#FFD571;stroke-width:15;stroke-linecap:round;stroke-miterlimit:10;}
</style>
<title>자산 44</title>
<g id="레이어_2_1_" class="st0">
	<g id="로고2">
		<path class="st1" d="M81,200.9C28.5,187.2-2.9,133.5,10.9,81s67.5-83.9,120-70.1s83.9,67.5,70.1,120
			c-9.4,35.8-38.1,63.3-74.3,71.1"/>
		<path class="st2" d="M90.9,167.2c-33.9-8.3-54.6-42.4-46.3-76.3c3-12.2,9.5-23.2,18.7-31.6"/>
		<path class="st2" d="M126.2,165.6c33-11.2,50.6-47.1,39.4-80.1c-8.7-25.6-32.7-42.8-59.7-42.8c-2.7,0-5.4,0.2-8.1,0.5
			c-1.9,0.2-5,0.9-6.8,1.3"/>
		<line class="st3" x1="90.9" y1="44.6" x2="90.9" y2="167.2"/>
		<ellipse class="st4" cx="124.4" cy="92.9" rx="17.2" ry="25.4"/>
		<path class="st5" d="M98.3,169.9c0,0.5-0.1,1-0.3,1.5c-1.1,3-4.2,4.9-7.4,4.5c-11.5-1.2-21.3-8.7-21.3-47.7c0-25.9,13-47,28.9-47
			V169.9z"/>
		<line class="st6" x1="124.4" y1="202.3" x2="205.5" y2="202.3"/>
		<line class="st7" x1="124.4" y1="84.6" x2="124.4" y2="202.3"/>
	</g>
</g>
</svg>
