<?xml version="1.0" encoding="utf-8"?>
<!-- Generator: Adobe Illustrator 22.1.0, SVG Export Plug-In . SVG Version: 6.00 Build 0)  -->
<svg version="1.1" id="레이어_1" xmlns="http://www.w3.org/2000/svg" xmlns:xlink="http://www.w3.org/1999/xlink" x="0px"
	 y="0px" viewBox="0 0 19.2 35.1" style="enable-background:new 0 0 19.2 35.1;" xml:space="preserve">
<style type="text/css">
	.st0{display:none;}
	.st1{display:inline;}
	.st2{fill:#FFFFFF;stroke:#FFFFFF;stroke-width:2;stroke-linecap:round;stroke-linejoin:round;stroke-miterlimit:10;}
	.st3{fill:none;stroke:#FFFFFF;stroke-width:2;stroke-linecap:round;stroke-linejoin:round;stroke-miterlimit:10;}
	.st4{display:inline;fill:#898989;stroke:#FFFFFF;stroke-width:2;stroke-miterlimit:10;}
	.st5{opacity:0.75;clip-path:url(#SVGID_2_);fill:url(#SVGID_3_);enable-background:new    ;}
	.st6{fill:none;stroke:#FFFFFF;stroke-width:2;stroke-miterlimit:10;}
	.st7{opacity:0.15;clip-path:url(#SVGID_5_);fill:url(#SVGID_6_);enable-background:new    ;}
	.st8{opacity:0.75;clip-path:url(#SVGID_8_);fill:url(#SVGID_9_);enable-background:new    ;}
	.st9{fill:#FFFFFF;}
	.st10{opacity:0.3;clip-path:url(#SVGID_11_);fill:url(#SVGID_12_);enable-background:new    ;}
	.st11{opacity:0.3;clip-path:url(#SVGID_14_);fill:url(#SVGID_15_);enable-background:new    ;}
	.st12{fill:none;stroke:#FFFFFF;stroke-width:3;stroke-linecap:round;stroke-linejoin:round;stroke-miterlimit:10;}
	.st13{opacity:0.45;clip-path:url(#SVGID_17_);fill:url(#SVGID_18_);enable-background:new    ;}
	.st14{opacity:0.35;clip-path:url(#SVGID_20_);fill:url(#SVGID_21_);enable-background:new    ;}
	.st15{opacity:0.65;clip-path:url(#SVGID_23_);fill:url(#SVGID_24_);enable-background:new    ;}
	.st16{opacity:0.77;clip-path:url(#SVGID_26_);fill:url(#SVGID_27_);enable-background:new    ;}
	.st17{fill:none;stroke:#FFFFFF;stroke-width:3;stroke-miterlimit:10;}
	.st18{display:inline;fill:none;stroke:#FFFFFF;stroke-width:3;stroke-linecap:round;stroke-linejoin:round;stroke-miterlimit:10;}
</style>
<g id="레이어_3" class="st0">
	<g class="st1">
		<path class="st2" d="M15.6,22.5c4.2-4.8,1.5-13.6-4.6-13.7h-0.1c-3,0-5.6,1.8-7,4.6c-1.5-2.7-4-4.6-7-4.6h-0.1
			c-6,0.1-8.7,8.9-4.6,13.7C-1,30.4,3.9,34,3.9,34C10.4,29,10.2,28.8,15.6,22.5z"/>
		<path class="st3" d="M-3.3,8.9"/>
		<path class="st3" d="M3.9,34c6.5-5,6.3-5.2,11.7-11.5c4.2-4.8,1.5-13.6-4.6-13.7h-0.1c-3,0-5.6,1.8-7,4.6"/>
	</g>
</g>
<g id="레이어_7" class="st0">
	<rect x="-22.2" y="-9.2" class="st4" width="55.9" height="54.8"/>
</g>
<g id="레이어_2_1_" class="st0">
	<g class="st1">
		<g>
			<path class="st3" d="M-9.7,33.4c1.1-6.8,6.1-11.9,12-11.9s10.9,5.1,12,11.8L-9.7,33.4z"/>
			<g>
				<g>
					<defs>
						<path id="SVGID_1_" d="M-9.7,34.4c-0.3,0-0.6-0.1-0.8-0.4c-0.2-0.2-0.3-0.5-0.2-0.8c1.2-7.4,6.7-12.7,13-12.7
							s11.7,5.3,13,12.7c0,0.3,0,0.6-0.2,0.8s-0.5,0.4-0.8,0.4H-9.7L-9.7,34.4z M2.3,22.5c-5,0-9.4,4.1-10.8,9.9l21.6-0.1
							C11.7,26.6,7.3,22.5,2.3,22.5z"/>
					</defs>
					<clipPath id="SVGID_2_">
						<use xlink:href="#SVGID_1_"  style="overflow:visible;"/>
					</clipPath>
					
						<radialGradient id="SVGID_3_" cx="-187.0469" cy="167.3323" r="20.9359" gradientTransform="matrix(9.787438e-03 -0.7009 -0.9999 -1.396278e-02 171.3462 -112.7148)" gradientUnits="userSpaceOnUse">
						<stop  offset="0" style="stop-color:#040000"/>
						<stop  offset="1" style="stop-color:#FFFFFF;stop-opacity:0"/>
					</radialGradient>
					<path class="st5" d="M2.4,1.4c11.6,0.2,20.8,6.9,20.7,15C23,24.5,13.6,30.9,2,30.7c-11.6-0.2-20.8-6.9-20.7-15
						C-18.6,7.7-9.2,1.2,2.4,1.4z"/>
				</g>
			</g>
			<circle class="st6" cx="2.3" cy="14.9" r="6.6"/>
			<line class="st3" x1="17" y1="19.5" x2="10.2" y2="19.5"/>
			<g>
				<g>
					<defs>
						<path id="SVGID_4_" d="M17,20.5h-6.8c-0.6,0-1-0.4-1-1s0.4-1,1-1H17c0.6,0,1,0.4,1,1C18,20,17.6,20.5,17,20.5z"/>
					</defs>
					<clipPath id="SVGID_5_">
						<use xlink:href="#SVGID_4_"  style="overflow:visible;"/>
					</clipPath>
					
						<radialGradient id="SVGID_6_" cx="-191.2615" cy="155.8583" r="6.2073" gradientTransform="matrix(9.787438e-03 -0.7009 -0.9999 -1.396278e-02 171.3462 -112.7148)" gradientUnits="userSpaceOnUse">
						<stop  offset="0" style="stop-color:#040000"/>
						<stop  offset="1" style="stop-color:#FFFFFF;stop-opacity:0"/>
					</radialGradient>
					<path class="st7" d="M13.7,14.8c3.4,0,6.2,2,6.1,4.4c0,2.4-2.8,4.3-6.3,4.3s-6.2-2-6.1-4.4S10.3,14.8,13.7,14.8z"/>
				</g>
			</g>
			<line class="st3" x1="13.6" y1="16.1" x2="13.6" y2="22.9"/>
		</g>
	</g>
</g>
<g id="레이어_4" class="st0">
	<g class="st1">
		<path class="st3" d="M14.1,19.7c4-4.1,1.4-11.7-4.4-11.8H9.6c-2.9,0-5.3,1.6-6.7,4c-1.4-2.4-3.9-4-6.7-4h-0.1
			c-5.8,0.1-8.3,7.7-4.4,11.8c6.5,6.8,11.2,9.9,11.2,9.9C9.1,25.3,8.9,25.2,14.1,19.7z"/>
		<g>
			<g>
				<defs>
					<path id="SVGID_7_" d="M2.9,29.8l-0.5,0.5C2.2,30.2-2.5,27-9,20.3c-2.2-2.2-2.7-5.7-1.5-8.7C-9.3,8.8-6.9,7.1-4,7h0.1
						c2.6,0,5.1,1.2,6.7,3.3C4.5,8.3,7,7,9.6,7h0.1c2.9,0,5.3,1.8,6.5,4.6c1.3,3,0.7,6.4-1.5,8.7l0,0c-0.7,0.8-1.3,1.4-1.9,2
						c-3.4,3.6-4,4.2-9.5,8L2.9,29.8z M-3.9,8.8L-3.9,8.8c-2.3,0-4.1,1.3-5,3.5c-1,2.4-0.6,5.1,1.1,6.8c5.2,5.4,9.3,8.5,10.6,9.5
						c4.8-3.4,5.4-4,8.7-7.5c0.5-0.6,1.2-1.2,1.9-2l0,0c1.7-1.8,2.2-4.5,1.2-6.8c-0.9-2.2-2.7-3.5-4.9-3.5H9.6c-2.5,0-4.7,1.3-6,3.5
						l-0.7,0.4l-0.7-0.4C0.8,10.1-1.4,8.8-3.9,8.8z"/>
				</defs>
				<clipPath id="SVGID_8_">
					<use xlink:href="#SVGID_7_"  style="overflow:visible;"/>
				</clipPath>
				
					<radialGradient id="SVGID_9_" cx="-8.7298" cy="1.9036" r="18.1147" gradientTransform="matrix(0.7009 9.787438e-03 1.396278e-02 -0.9999 9.3871 22.588)" gradientUnits="userSpaceOnUse">
					<stop  offset="0" style="stop-color:#040000"/>
					<stop  offset="1" style="stop-color:#FFFFFF;stop-opacity:0"/>
				</radialGradient>
				<path class="st8" d="M16,20.8c-0.1,10-5.9,18-12.9,17.9c-7-0.1-12.6-8.3-12.4-18.3c0.1-10,5.9-18,12.9-17.9S16.1,10.8,16,20.8z"
					/>
			</g>
		</g>
		<path class="st3" d="M-4,7.9"/>
		<path class="st3" d="M2.9,29.6c6.2-4.4,6-4.5,11.2-9.9c4-4.1,1.4-11.7-4.4-11.8H9.6c-2.9,0-5.3,1.6-6.7,4"/>
	</g>
</g>
<g id="레이어_5" class="st0">
	<g class="st1">
		<path class="st2" d="M14.1,19.7c4-4.1,1.4-11.7-4.4-11.8H9.6c-2.9,0-5.3,1.6-6.7,4c-1.4-2.4-3.9-4-6.7-4h-0.1
			c-5.8,0.1-8.3,7.7-4.4,11.8c6.5,6.8,11.2,9.9,11.2,9.9C9.1,25.3,8.9,25.2,14.1,19.7z"/>
		<path class="st3" d="M-4,7.9"/>
		<path class="st3" d="M2.9,29.6c6.2-4.4,6-4.5,11.2-9.9c4-4.1,1.4-11.7-4.4-11.8H9.6c-2.9,0-5.3,1.6-6.7,4"/>
	</g>
</g>
<g id="레이어_6" class="st0">
	<g class="st1">
		<path class="st9" d="M-4.3,30.2c-0.2,0-0.5-0.1-0.7-0.3l-5.2-5.2c-0.4-0.4-0.4-1,0-1.3c0.4-0.4,1-0.4,1.3,0l5.2,5.2
			c0.4,0.4,0.4,1,0,1.3C-3.8,30.1-4.1,30.2-4.3,30.2z"/>
		<path class="st9" d="M8,17.9c-0.2,0-0.5-0.1-0.7-0.3l-5.2-5.2c-0.4-0.4-0.4-1,0-1.3s1-0.4,1.3,0l5.2,5.2c0.4,0.4,0.4,1,0,1.3
			C8.5,17.8,8.2,17.9,8,17.9z"/>
		<g>
			<g>
				<defs>
					<path id="SVGID_10_" d="M8,17.9c-0.2,0-0.5-0.1-0.7-0.3l-5.2-5.2c-0.4-0.4-0.4-1,0-1.3s1-0.4,1.3,0l5.2,5.2
						c0.4,0.4,0.4,1,0,1.3C8.5,17.8,8.2,17.9,8,17.9z"/>
				</defs>
				<clipPath id="SVGID_11_">
					<use xlink:href="#SVGID_10_"  style="overflow:visible;"/>
				</clipPath>
				
					<radialGradient id="SVGID_12_" cx="-0.5764" cy="24.1352" r="8.9527" gradientTransform="matrix(1 0 0 -1 0 35)" gradientUnits="userSpaceOnUse">
					<stop  offset="0" style="stop-color:#040000"/>
					<stop  offset="1" style="stop-color:#FFFFFF;stop-opacity:0"/>
				</radialGradient>
				<circle class="st10" cx="-0.6" cy="10.9" r="9"/>
			</g>
		</g>
		<g>
			<g>
				<defs>
					<path id="SVGID_13_" d="M-4.3,30.2c-0.2,0-0.5-0.1-0.7-0.3l-5.2-5.2c-0.4-0.4-0.4-1,0-1.3c0.4-0.4,1-0.4,1.3,0l5.2,5.2
						c0.4,0.4,0.4,1,0,1.3C-3.8,30.1-4.1,30.2-4.3,30.2z"/>
				</defs>
				<clipPath id="SVGID_14_">
					<use xlink:href="#SVGID_13_"  style="overflow:visible;"/>
				</clipPath>
				
					<radialGradient id="SVGID_15_" cx="-1.9785" cy="3" r="8.9464" gradientTransform="matrix(1 0 0 -1 0 35)" gradientUnits="userSpaceOnUse">
					<stop  offset="0" style="stop-color:#040000"/>
					<stop  offset="1" style="stop-color:#FFFFFF;stop-opacity:0"/>
				</radialGradient>
				<circle class="st11" cx="-2" cy="32" r="9"/>
			</g>
		</g>
		<path class="st3" d="M-5,29.9l16.2-16.2c0.3-0.3,0.3-0.9,0-1.2l-3.8-4C7,8.1,6.4,8.1,6,8.5l-1.8,1.8l-14.4,14.4v5.2
			C-10.2,29.9-5,29.9-5,29.9z"/>
		<line class="st3" x1="0.9" y1="29.9" x2="11.9" y2="29.9"/>
		<path class="st3" d="M-10.2,24.7"/>
	</g>
</g>
<g id="레이어_8">
	<g>
		<polyline class="st12" points="17.7,33.6 1.5,17.4 17.4,1.5 1.5,17.4 		"/>
	</g>
	<g>
		<g>
			<defs>
				<path id="SVGID_16_" d="M17.7,35.1c-0.4,0-0.8-0.1-1.1-0.4L0.4,18.5c-0.6-0.6-0.6-1.5,0-2.1l15.9-16c0.6-0.6,1.5-0.6,2.1,0
					S19,2,18.5,2.6L3.6,17.4l15.1,15.1c0.6,0.6,0.6,1.5,0,2.1C18.5,34.9,18.1,35.1,17.7,35.1z"/>
			</defs>
			<clipPath id="SVGID_17_">
				<use xlink:href="#SVGID_16_"  style="overflow:visible;"/>
			</clipPath>
			
				<radialGradient id="SVGID_18_" cx="-21.0389" cy="12.1491" r="18.7819" gradientTransform="matrix(0.8976 9.698372e-02 0.1074 -0.9942 11.0469 28.9209)" gradientUnits="userSpaceOnUse">
				<stop  offset="0" style="stop-color:#040000"/>
				<stop  offset="1" style="stop-color:#FFFFFF;stop-opacity:0"/>
			</radialGradient>
			<path class="st13" d="M10.3,16.6C9.2,26.9,0.8,34.5-8.6,33.5c-9.3-1-16-10.2-14.9-20.5c1.2-10.3,9.7-17.9,19-16.9
				S11.5,6.3,10.3,16.6z"/>
		</g>
	</g>
	<g>
		<path class="st12" d="M1.5,17.4"/>
		<line class="st12" x1="17.7" y1="33.6" x2="1.5" y2="17.4"/>
	</g>
</g>
<g id="레이어_9" class="st0">
	<g id="로그아웃_1_" class="st1">
		<polyline class="st12" points="-2.3,5.2 -2.3,-2.7 21,-2.7 21,30.2 -2.3,30.2 -2.3,22.3 		"/>
		<polyline class="st12" points="5.2,14.1 -9,14.1 -4.5,9.6 		"/>
		<g>
			<g>
				<defs>
					<path id="SVGID_19_" d="M5.2,15.6H-9c-0.6,0-1.2-0.4-1.4-0.9c-0.2-0.6-0.1-1.2,0.3-1.6l4.5-4.5C-5,7.9-4,7.9-3.4,8.5
						s0.6,1.5,0,2.1l-1.9,1.9H5.2c0.8,0,1.5,0.7,1.5,1.5S6,15.6,5.2,15.6z"/>
				</defs>
				<clipPath id="SVGID_20_">
					<use xlink:href="#SVGID_19_"  style="overflow:visible;"/>
				</clipPath>
				
					<radialGradient id="SVGID_21_" cx="-24.4615" cy="12.8211" r="18.7819" gradientTransform="matrix(0.8976 9.698372e-02 0.1074 -0.9942 11.0469 28.9209)" gradientUnits="userSpaceOnUse">
					<stop  offset="0" style="stop-color:#040000"/>
					<stop  offset="1" style="stop-color:#FFFFFF;stop-opacity:0"/>
				</radialGradient>
				<path class="st14" d="M7.3,15.6C6.2,25.9-2.2,33.5-11.6,32.5c-9.3-1-16-10.2-14.9-20.5c1.2-10.3,9.7-17.9,19-16.9
					S8.5,5.3,7.3,15.6z"/>
			</g>
		</g>
		<line class="st12" x1="-9" y1="14.1" x2="-4.5" y2="18.6"/>
	</g>
	<g class="st1">
		<g>
			<defs>
				<path id="SVGID_22_" d="M21,31.7H-2.3c-0.8,0-1.5-0.7-1.5-1.5v-7.9c0-0.8,0.7-1.5,1.5-1.5s1.5,0.7,1.5,1.5v6.4h20.3V-1.2H-0.8
					v6.4c0,0.8-0.7,1.5-1.5,1.5S-3.8,6-3.8,5.2v-7.9c0-0.8,0.7-1.5,1.5-1.5H21c0.8,0,1.5,0.7,1.5,1.5v32.9
					C22.5,31,21.8,31.7,21,31.7z"/>
			</defs>
			<clipPath id="SVGID_23_">
				<use xlink:href="#SVGID_22_"  style="overflow:visible;"/>
			</clipPath>
			
				<radialGradient id="SVGID_24_" cx="-24.1945" cy="14.1619" r="18.8096" gradientTransform="matrix(0.8976 9.698372e-02 0.1074 -0.9942 11.0469 28.9209)" gradientUnits="userSpaceOnUse">
				<stop  offset="0" style="stop-color:#040000"/>
				<stop  offset="1" style="stop-color:#FFFFFF;stop-opacity:0"/>
			</radialGradient>
			<path class="st15" d="M7.7,14.3C6.6,24.6-1.8,32.2-11.1,31.2S-27.1,21-26,10.7S-16.4-7.2-7.1-6.2S8.9,4,7.7,14.3z"/>
		</g>
	</g>
</g>
<g id="레이어_11" class="st0">
	<g class="st1">
		<line class="st12" x1="12.1" y1="30" x2="2" y2="19.8"/>
		<path class="st12" d="M-15.9,10.1c0-2.6,1.2-5,3.1-6.5"/>
		<g>
			<g>
				<defs>
					<path id="SVGID_25_" d="M12.1,31.5c-0.4,0-0.8-0.1-1.1-0.4L0.9,20.9c-0.6-0.6-0.6-1.5,0-2.1s1.5-0.6,2.1,0l10.1,10.1
						c0.6,0.6,0.6,1.5,0,2.1C12.9,31.3,12.5,31.5,12.1,31.5z"/>
				</defs>
				<clipPath id="SVGID_26_">
					<use xlink:href="#SVGID_25_"  style="overflow:visible;"/>
				</clipPath>
				
					<radialGradient id="SVGID_27_" cx="-14.9572" cy="12.2428" r="18.7988" gradientTransform="matrix(0.8976 9.698372e-02 0.1074 -0.9942 11.0469 28.9209)" gradientUnits="userSpaceOnUse">
					<stop  offset="0" style="stop-color:#040000"/>
					<stop  offset="1" style="stop-color:#FFFFFF;stop-opacity:0"/>
				</radialGradient>
				<path class="st16" d="M15.8,17.1C14.7,27.4,6.2,35-3.1,34s-16-10.2-14.9-20.5C-16.8,3.1-8.4-4.4,1-3.4S16.9,6.8,15.8,17.1z"/>
			</g>
		</g>
		<circle class="st17" cx="-7.6" cy="10.1" r="13.7"/>
	</g>
	<line class="st18" x1="-9" y1="16.1" x2="-4.5" y2="11.6"/>
</g>
</svg>
