<?xml version="1.0" encoding="utf-8"?>
<!-- Generator: Adobe Illustrator 22.1.0, SVG Export Plug-In . SVG Version: 6.00 Build 0)  -->
<svg version="1.1" id="레이어_1" xmlns="http://www.w3.org/2000/svg" xmlns:xlink="http://www.w3.org/1999/xlink" x="0px"
	 y="0px" viewBox="0 0 44.7 44" style="enable-background:new 0 0 44.7 44;" xml:space="preserve">
<style type="text/css">
	.st0{display:none;}
	.st1{display:inline;}
	.st2{opacity:0.5;fill:#FFFFFF;enable-background:new    ;}
	.st3{opacity:0.3;clip-path:url(#SVGID_2_);fill:url(#SVGID_3_);enable-background:new    ;}
	.st4{fill:#FFFFFF;}
	.st5{opacity:0.3;clip-path:url(#SVGID_5_);fill:url(#SVGID_6_);enable-background:new    ;}
	.st6{opacity:0.3;clip-path:url(#SVGID_8_);fill:url(#SVGID_9_);enable-background:new    ;}
	.st7{opacity:0.3;clip-path:url(#SVGID_11_);fill:url(#SVGID_12_);enable-background:new    ;}
	.st8{opacity:0.3;clip-path:url(#SVGID_14_);fill:url(#SVGID_15_);enable-background:new    ;}
	.st9{clip-path:url(#SVGID_17_);fill:#FFFFFF;}
	.st10{fill:none;stroke:#FFFFFF;stroke-width:4;stroke-linecap:round;stroke-miterlimit:10;}
	.st11{opacity:0.33;fill:#7C7C7C;enable-background:new    ;}
	.st12{fill:#A8A8A8;}
	.st13{opacity:0.3;clip-path:url(#SVGID_19_);fill:url(#SVGID_20_);enable-background:new    ;}
	.st14{opacity:0.3;clip-path:url(#SVGID_22_);fill:url(#SVGID_23_);enable-background:new    ;}
	.st15{opacity:0.3;clip-path:url(#SVGID_25_);fill:url(#SVGID_26_);enable-background:new    ;}
	.st16{opacity:0.3;clip-path:url(#SVGID_28_);fill:url(#SVGID_29_);enable-background:new    ;}
	.st17{clip-path:url(#SVGID_31_);fill:#A8A8A8;}
	.st18{fill:none;stroke:#F7D071;stroke-width:4;stroke-linecap:round;stroke-miterlimit:10;}
	.st19{fill:#F7D071;}
	.st20{fill:#F5A73B;}
	.st21{fill:none;stroke:#F5A73B;stroke-width:4;stroke-linecap:round;stroke-miterlimit:10;}
	.st22{opacity:0.3;clip-path:url(#SVGID_33_);fill:url(#SVGID_34_);enable-background:new    ;}
</style>
<g id="레이어_1_1_" class="st0">
	<g class="st1">
		<path class="st2" d="M42.8,44H26c-1,0-1.9-0.8-1.9-1.9s0.8-1.9,1.9-1.9h16.8c1,0,1.9,0.8,1.9,1.9S43.8,44,42.8,44z"/>
		<g>
			<g>
				<defs>
					<path id="SVGID_1_" d="M42.8,44H26.1c-1,0-1.9-0.8-1.9-1.9s0.8-1.9,1.9-1.9h16.8c1,0,1.9,0.8,1.9,1.9S43.9,44,42.8,44z"/>
				</defs>
				<clipPath id="SVGID_2_">
					<use xlink:href="#SVGID_1_"  style="overflow:visible;"/>
				</clipPath>
				
					<radialGradient id="SVGID_3_" cx="46.9474" cy="-19.3" r="18.7981" gradientTransform="matrix(1 0 0 -1 0 43)" gradientUnits="userSpaceOnUse">
					<stop  offset="0" style="stop-color:#040000"/>
					<stop  offset="1" style="stop-color:#FFFFFF;stop-opacity:0"/>
				</radialGradient>
				<circle class="st3" cx="46.9" cy="62.3" r="18.8"/>
			</g>
		</g>
		<path class="st4" d="M19.1,36.8c-0.1,0-0.3,0-0.4-0.1C12,35.1,7.3,29.1,7.3,22.2c0-4.2,1.8-8.2,4.9-11c0.8-0.7,1.9-0.6,2.6,0.1
			c0.7,0.8,0.6,1.9-0.1,2.6c-2.3,2.1-3.6,5.1-3.6,8.2c0,5.2,3.5,9.6,8.5,10.9c1,0.2,1.6,1.3,1.4,2.3C20.7,36.2,20,36.8,19.1,36.8z"
			/>
		<g>
			<g>
				<defs>
					<path id="SVGID_4_" d="M19.1,36.8c-0.1,0-0.3,0-0.4-0.1C12,35.1,7.3,29.1,7.3,22.2c0-4.2,1.8-8.2,4.9-11
						c0.8-0.7,1.9-0.6,2.6,0.1c0.7,0.8,0.6,1.9-0.1,2.6c-2.3,2.1-3.6,5.1-3.6,8.2c0,5.2,3.5,9.6,8.5,10.9c1,0.2,1.6,1.3,1.4,2.3
						C20.7,36.2,20,36.8,19.1,36.8z"/>
				</defs>
				<clipPath id="SVGID_5_">
					<use xlink:href="#SVGID_4_"  style="overflow:visible;"/>
				</clipPath>
				
					<radialGradient id="SVGID_6_" cx="22.2" cy="8" r="18.8" gradientTransform="matrix(1 0 0 -1 0 43)" gradientUnits="userSpaceOnUse">
					<stop  offset="0" style="stop-color:#040000"/>
					<stop  offset="1" style="stop-color:#FFFFFF;stop-opacity:0"/>
				</radialGradient>
				<circle class="st5" cx="22.2" cy="35" r="18.8"/>
			</g>
		</g>
		<path class="st4" d="M26.4,36.4c-0.8,0-1.5-0.5-1.8-1.3c-0.3-1,0.2-2,1.2-2.4c4.5-1.5,7.6-5.8,7.6-10.6c0-6.2-5-11.2-11.2-11.2
			c-0.5,0-1,0-1.4,0.1c-0.2,0-0.7,0.1-1.2,0.2c-1,0.2-2-0.4-2.2-1.4s0.4-2,1.4-2.2c0.5-0.1,1.1-0.2,1.6-0.3c0.6-0.1,1.3-0.1,1.9-0.1
			c8.2,0,14.9,6.7,14.9,14.9c0,6.4-4.1,12.1-10.1,14.1C26.8,36.4,26.6,36.4,26.4,36.4z"/>
		<g>
			<g>
				<defs>
					<path id="SVGID_7_" d="M26.4,36.4c-0.8,0-1.5-0.5-1.8-1.3c-0.3-1,0.2-2,1.2-2.4c4.5-1.5,7.6-5.8,7.6-10.6
						c0-6.2-5-11.2-11.2-11.2c-0.5,0-1,0-1.4,0.1c-0.2,0-0.7,0.1-1.2,0.2c-1,0.2-2-0.4-2.2-1.4s0.4-2,1.4-2.2
						c0.5-0.1,1.1-0.2,1.6-0.3c0.6-0.1,1.3-0.1,1.9-0.1c8.2,0,14.9,6.7,14.9,14.9c0,6.4-4.1,12.1-10.1,14.1
						C26.8,36.4,26.6,36.4,26.4,36.4z"/>
				</defs>
				<clipPath id="SVGID_8_">
					<use xlink:href="#SVGID_7_"  style="overflow:visible;"/>
				</clipPath>
				
					<radialGradient id="SVGID_9_" cx="22.4" cy="4.7" r="18.7711" gradientTransform="matrix(1 0 0 -1 0 43)" gradientUnits="userSpaceOnUse">
					<stop  offset="0" style="stop-color:#040000"/>
					<stop  offset="1" style="stop-color:#FFFFFF;stop-opacity:0"/>
				</radialGradient>
				<circle class="st6" cx="22.4" cy="38.3" r="18.8"/>
			</g>
			<g>
				<defs>
					<path id="SVGID_10_" d="M26.4,36.4c-0.8,0-1.5-0.5-1.8-1.3c-0.3-1,0.2-2,1.2-2.4c4.5-1.5,7.6-5.8,7.6-10.6
						c0-6.2-5-11.2-11.2-11.2c-0.5,0-1,0-1.4,0.1c-0.2,0-0.7,0.1-1.2,0.2c-1,0.2-2-0.4-2.2-1.4s0.4-2,1.4-2.2
						c0.5-0.1,1.1-0.2,1.6-0.3c0.6-0.1,1.3-0.1,1.9-0.1c8.2,0,14.9,6.7,14.9,14.9c0,6.4-4.1,12.1-10.1,14.1
						C26.8,36.4,26.6,36.4,26.4,36.4z"/>
				</defs>
				<clipPath id="SVGID_11_">
					<use xlink:href="#SVGID_10_"  style="overflow:visible;"/>
				</clipPath>
				
					<radialGradient id="SVGID_12_" cx="14.9" cy="32.3" r="18.828" gradientTransform="matrix(1 0 0 -1 0 43)" gradientUnits="userSpaceOnUse">
					<stop  offset="0" style="stop-color:#040000"/>
					<stop  offset="1" style="stop-color:#FFFFFF;stop-opacity:0"/>
				</radialGradient>
				<circle class="st7" cx="14.9" cy="10.7" r="18.8"/>
			</g>
		</g>
		<path class="st4" d="M26.3,44c-0.9,0-1.6-0.6-1.8-1.5c-0.2-1,0.4-2,1.5-2.2c7.7-1.6,13.5-7.9,14.5-15.7c0.6-4.9-0.7-9.7-3.7-13.6
			s-7.4-6.4-12.3-7C14.4,2.6,5.2,9.8,3.9,19.8C2.7,29,8.5,37.6,17.4,40c1,0.3,1.6,1.3,1.3,2.3c-0.3,1-1.3,1.6-2.3,1.3
			C5.8,40.8-1.2,30.3,0.2,19.4C1.7,7.2,12.9-1.4,25,0.2C30.9,1,36.1,4,39.7,8.6c3.6,4.7,5.2,10.5,4.5,16.4C43,34.4,36,42,26.7,43.9
			C26.6,43.9,26.5,44,26.3,44z"/>
		<g>
			<g>
				<defs>
					<path id="SVGID_13_" d="M26.3,44c-0.9,0-1.6-0.6-1.8-1.5c-0.2-1,0.4-2,1.5-2.2c7.7-1.6,13.5-7.9,14.5-15.7
						c0.6-4.9-0.7-9.7-3.7-13.6s-7.4-6.4-12.3-7C14.4,2.6,5.2,9.8,3.9,19.8C2.7,29,8.5,37.6,17.4,40c1,0.3,1.6,1.3,1.3,2.3
						c-0.3,1-1.3,1.6-2.3,1.3C5.8,40.8-1.2,30.3,0.2,19.4C1.7,7.2,12.9-1.4,25,0.2C30.9,1,36.1,4,39.7,8.6
						c3.6,4.7,5.2,10.5,4.5,16.4C43,34.4,36,42,26.7,43.9C26.6,43.9,26.5,44,26.3,44z"/>
				</defs>
				<clipPath id="SVGID_14_">
					<use xlink:href="#SVGID_13_"  style="overflow:visible;"/>
				</clipPath>
				
					<radialGradient id="SVGID_15_" cx="9.1974" cy="-8.9261" r="18.799" gradientTransform="matrix(0.8976 9.698372e-02 0.1074 -0.9942 13.6079 34.1893)" gradientUnits="userSpaceOnUse">
					<stop  offset="0" style="stop-color:#040000"/>
					<stop  offset="1" style="stop-color:#FFFFFF;stop-opacity:0"/>
				</radialGradient>
				<path class="st8" d="M37.8,45.8c-1.1,10.3-9.6,17.9-18.9,16.9S2.9,52.5,4,42.2s9.6-17.9,19-16.9S38.9,35.5,37.8,45.8z"/>
			</g>
			<g>
				<defs>
					<path id="SVGID_16_" d="M26.3,44c-0.9,0-1.6-0.6-1.8-1.5c-0.2-1,0.4-2,1.5-2.2c7.7-1.6,13.5-7.9,14.5-15.7
						c0.6-4.9-0.7-9.7-3.7-13.6s-7.4-6.4-12.3-7C14.4,2.6,5.2,9.8,3.9,19.8C2.7,29,8.5,37.6,17.4,40c1,0.3,1.6,1.3,1.3,2.3
						c-0.3,1-1.3,1.6-2.3,1.3C5.8,40.8-1.2,30.3,0.2,19.4C1.7,7.2,12.9-1.4,25,0.2C30.9,1,36.1,4,39.7,8.6
						c3.6,4.7,5.2,10.5,4.5,16.4C43,34.4,36,42,26.7,43.9C26.6,43.9,26.5,44,26.3,44z"/>
				</defs>
				<clipPath id="SVGID_17_">
					<use xlink:href="#SVGID_16_"  style="overflow:visible;"/>
				</clipPath>
				<rect x="-4" y="-2.1" class="st9" width="25" height="68.9"/>
			</g>
		</g>
		<line class="st10" x1="26" y1="17.2" x2="26" y2="42"/>
		<g>
			<path class="st4" d="M27.7,18.6L27.7,18.6L27.7,18.6 M26,14.3c-2,0-3.6,2.3-3.6,5.2s1.6,5.2,3.6,5.2s3.6-2.3,3.6-5.2
				S28,14.3,26,14.3L26,14.3z"/>
		</g>
		<g>
			<path class="st4" d="M21,35.6c0,0.1,0,0.2-0.1,0.4c-0.3,0.6-0.9,0.9-1.6,0.9c-2.5-0.3-4.7-1.8-4.7-9.9c0-5.4,2.8-9.8,6.4-9.8
				V35.6z"/>
		</g>
		<line class="st10" x1="19.1" y1="9.5" x2="19.1" y2="34.9"/>
	</g>
</g>
<g id="레이어_2_1_">
	<g>
		<path class="st11" d="M43,44H26.3c-1,0-1.9-0.8-1.9-1.9s0.8-1.9,1.9-1.9H43c1,0,1.9,0.8,1.9,1.9S44.1,44,43,44z"/>
		<path class="st12" d="M19.3,36.8c-0.1,0-0.3,0-0.4-0.1c-6.7-1.6-11.4-7.6-11.4-14.5c0-4.2,1.8-8.2,4.9-11c0.8-0.7,1.9-0.6,2.6,0.1
			c0.7,0.8,0.6,1.9-0.1,2.6c-2.3,2.1-3.6,5.1-3.6,8.2c0,5.2,3.5,9.6,8.5,10.9c1,0.2,1.6,1.3,1.4,2.3C21,36.2,20.2,36.8,19.3,36.8z"
			/>
		<g>
			<g>
				<defs>
					<path id="SVGID_18_" d="M19.3,36.8c-0.1,0-0.3,0-0.4-0.1c-6.7-1.6-11.4-7.6-11.4-14.5c0-4.2,1.8-8.2,4.9-11
						c0.8-0.7,1.9-0.6,2.6,0.1c0.7,0.8,0.6,1.9-0.1,2.6c-2.3,2.1-3.6,5.1-3.6,8.2c0,5.2,3.5,9.6,8.5,10.9c1,0.2,1.6,1.3,1.4,2.3
						C21,36.2,20.2,36.8,19.3,36.8z"/>
				</defs>
				<clipPath id="SVGID_19_">
					<use xlink:href="#SVGID_18_"  style="overflow:visible;"/>
				</clipPath>
				
					<radialGradient id="SVGID_20_" cx="22.4" cy="7.9" r="18.8314" gradientTransform="matrix(1 0 0 -1 0 43)" gradientUnits="userSpaceOnUse">
					<stop  offset="0" style="stop-color:#040000"/>
					<stop  offset="1" style="stop-color:#FFFFFF;stop-opacity:0"/>
				</radialGradient>
				<circle class="st13" cx="22.4" cy="35.1" r="18.8"/>
			</g>
		</g>
		<path class="st12" d="M26.6,36.5c-0.8,0-1.5-0.5-1.8-1.3c-0.3-1,0.2-2,1.2-2.4c4.5-1.5,7.6-5.8,7.6-10.6c0-6.2-5-11.2-11.2-11.2
			c-0.5,0-1,0-1.4,0.1c-0.2,0-0.7,0.1-1.2,0.2c-1,0.2-2-0.4-2.2-1.4s0.4-2,1.4-2.2c0.5-0.1,1.1-0.2,1.6-0.3c0.6-0.1,1.3-0.1,1.9-0.1
			c8.2,0,14.9,6.7,14.9,14.9c0,6.4-4.1,12.1-10.1,14.1C27,36.4,26.8,36.5,26.6,36.5z"/>
		<g>
			<g>
				<defs>
					<path id="SVGID_21_" d="M26.6,36.5c-0.8,0-1.5-0.5-1.8-1.3c-0.3-1,0.2-2,1.2-2.4c4.5-1.5,7.6-5.8,7.6-10.6
						c0-6.2-5-11.2-11.2-11.2c-0.5,0-1,0-1.4,0.1c-0.2,0-0.7,0.1-1.2,0.2c-1,0.2-2-0.4-2.2-1.4s0.4-2,1.4-2.2
						c0.5-0.1,1.1-0.2,1.6-0.3c0.6-0.1,1.3-0.1,1.9-0.1c8.2,0,14.9,6.7,14.9,14.9c0,6.4-4.1,12.1-10.1,14.1
						C27,36.4,26.8,36.5,26.6,36.5z"/>
				</defs>
				<clipPath id="SVGID_22_">
					<use xlink:href="#SVGID_21_"  style="overflow:visible;"/>
				</clipPath>
				
					<radialGradient id="SVGID_23_" cx="22.6" cy="4.6" r="18.8" gradientTransform="matrix(1 0 0 -1 0 43)" gradientUnits="userSpaceOnUse">
					<stop  offset="0" style="stop-color:#040000"/>
					<stop  offset="1" style="stop-color:#FFFFFF;stop-opacity:0"/>
				</radialGradient>
				<circle class="st14" cx="22.6" cy="38.4" r="18.8"/>
			</g>
			<g>
				<defs>
					<path id="SVGID_24_" d="M26.6,36.5c-0.8,0-1.5-0.5-1.8-1.3c-0.3-1,0.2-2,1.2-2.4c4.5-1.5,7.6-5.8,7.6-10.6
						c0-6.2-5-11.2-11.2-11.2c-0.5,0-1,0-1.4,0.1c-0.2,0-0.7,0.1-1.2,0.2c-1,0.2-2-0.4-2.2-1.4s0.4-2,1.4-2.2
						c0.5-0.1,1.1-0.2,1.6-0.3c0.6-0.1,1.3-0.1,1.9-0.1c8.2,0,14.9,6.7,14.9,14.9c0,6.4-4.1,12.1-10.1,14.1
						C27,36.4,26.8,36.5,26.6,36.5z"/>
				</defs>
				<clipPath id="SVGID_25_">
					<use xlink:href="#SVGID_24_"  style="overflow:visible;"/>
				</clipPath>
				
					<radialGradient id="SVGID_26_" cx="15.2" cy="32.3" r="18.7721" gradientTransform="matrix(1 0 0 -1 0 43)" gradientUnits="userSpaceOnUse">
					<stop  offset="0" style="stop-color:#040000"/>
					<stop  offset="1" style="stop-color:#FFFFFF;stop-opacity:0"/>
				</radialGradient>
				<circle class="st15" cx="15.2" cy="10.7" r="18.8"/>
			</g>
		</g>
		<path class="st12" d="M26.6,44c-0.9,0-1.6-0.6-1.8-1.5c-0.2-1,0.4-2,1.5-2.2c7.7-1.6,13.5-7.9,14.5-15.7C41.3,19.7,40,14.9,37,11
			s-7.4-6.4-12.3-7C14.7,2.7,5.4,9.8,4.1,19.9C3,29,8.8,37.7,17.6,40.1c1,0.3,1.6,1.3,1.3,2.3c-0.3,1-1.3,1.6-2.3,1.3
			C6,40.8-1,30.4,0.4,19.4C2,7.3,13.1-1.3,25.2,0.2C31.1,1,36.4,4,40,8.7s5.2,10.5,4.5,16.4C43.2,34.4,36.2,42,27,44
			C26.8,44,26.7,44,26.6,44z"/>
		<g>
			<g>
				<defs>
					<path id="SVGID_27_" d="M26.6,44c-0.9,0-1.6-0.6-1.8-1.5c-0.2-1,0.4-2,1.5-2.2c7.7-1.6,13.5-7.9,14.5-15.7
						C41.3,19.7,40,14.9,37,11s-7.4-6.4-12.3-7C14.7,2.7,5.4,9.8,4.1,19.9C3,29,8.8,37.7,17.6,40.1c1,0.3,1.6,1.3,1.3,2.3
						c-0.3,1-1.3,1.6-2.3,1.3C6,40.8-1,30.4,0.4,19.4C2,7.3,13.1-1.3,25.2,0.2C31.1,1,36.4,4,40,8.7s5.2,10.5,4.5,16.4
						C43.2,34.4,36.2,42,27,44C26.8,44,26.7,44,26.6,44z"/>
				</defs>
				<clipPath id="SVGID_28_">
					<use xlink:href="#SVGID_27_"  style="overflow:visible;"/>
				</clipPath>
				
					<radialGradient id="SVGID_29_" cx="9.5017" cy="-8.9493" r="18.7963" gradientTransform="matrix(0.8976 9.698372e-02 0.1074 -0.9942 13.6079 34.1893)" gradientUnits="userSpaceOnUse">
					<stop  offset="0" style="stop-color:#040000"/>
					<stop  offset="1" style="stop-color:#FFFFFF;stop-opacity:0"/>
				</radialGradient>
				<path class="st16" d="M38,45.8c-1.1,10.3-9.6,17.9-18.9,16.9S3.1,52.5,4.2,42.2s9.6-17.9,18.9-16.9S39.2,35.5,38,45.8z"/>
			</g>
			<g>
				<defs>
					<path id="SVGID_30_" d="M26.6,44c-0.9,0-1.6-0.6-1.8-1.5c-0.2-1,0.4-2,1.5-2.2c7.7-1.6,13.5-7.9,14.5-15.7
						C41.3,19.7,40,14.9,37,11s-7.4-6.4-12.3-7C14.7,2.7,5.4,9.8,4.1,19.9C3,29,8.8,37.7,17.6,40.1c1,0.3,1.6,1.3,1.3,2.3
						c-0.3,1-1.3,1.6-2.3,1.3C6,40.8-1,30.4,0.4,19.4C2,7.3,13.1-1.3,25.2,0.2C31.1,1,36.4,4,40,8.7s5.2,10.5,4.5,16.4
						C43.2,34.4,36.2,42,27,44C26.8,44,26.7,44,26.6,44z"/>
				</defs>
				<clipPath id="SVGID_31_">
					<use xlink:href="#SVGID_30_"  style="overflow:visible;"/>
				</clipPath>
				<rect x="-3.7" y="-2" class="st17" width="25" height="68.9"/>
			</g>
		</g>
		<line class="st18" x1="26.3" y1="17.2" x2="26.3" y2="42"/>
		<g>
			<path class="st19" d="M27.9,18.7L27.9,18.7L27.9,18.7 M26.3,14.3c-2,0-3.6,2.3-3.6,5.2s1.6,5.2,3.6,5.2s3.6-2.3,3.6-5.2
				S28.2,14.3,26.3,14.3L26.3,14.3z"/>
		</g>
		<g>
			<path class="st20" d="M21.2,35.6c0,0.1,0,0.2-0.1,0.4c-0.3,0.6-0.9,0.9-1.6,0.9c-2.5-0.3-4.7-1.8-4.7-9.9c0-5.4,2.8-9.8,6.4-9.8
				V35.6z"/>
		</g>
		<line class="st21" x1="19.3" y1="9.6" x2="19.3" y2="34.9"/>
		<g>
			<g>
				<defs>
					<path id="SVGID_32_" d="M19.1,25.3H2.3c-1,0-1.9-0.8-1.9-1.9c0-1,0.8-1.9,1.9-1.9h16.8c1,0,1.9,0.8,1.9,1.9
						C20.9,24.5,20.1,25.3,19.1,25.3z"/>
				</defs>
				<clipPath id="SVGID_33_">
					<use xlink:href="#SVGID_32_"  style="overflow:visible;"/>
				</clipPath>
				
					<radialGradient id="SVGID_34_" cx="23.2" cy="-0.6" r="18.7784" gradientTransform="matrix(1 0 0 -1 0 43)" gradientUnits="userSpaceOnUse">
					<stop  offset="0" style="stop-color:#040000"/>
					<stop  offset="1" style="stop-color:#FFFFFF;stop-opacity:0"/>
				</radialGradient>
				<circle class="st22" cx="23.2" cy="43.6" r="18.8"/>
			</g>
		</g>
	</g>
</g>
</svg>
