<?xml version="1.0" encoding="utf-8"?>
<!-- Generator: Adobe Illustrator 22.1.0, SVG Export Plug-In . SVG Version: 6.00 Build 0)  -->
<svg version="1.1" xmlns="http://www.w3.org/2000/svg" xmlns:xlink="http://www.w3.org/1999/xlink" x="0px" y="0px"
	 viewBox="0 0 24.1 23.7" style="enable-background:new 0 0 24.1 23.7;" xml:space="preserve">
<style type="text/css">
	.st0{display:none;}
	.st1{display:inline;}
	.st2{fill:#FFFFFF;stroke:#FFFFFF;stroke-width:2;stroke-linecap:round;stroke-linejoin:round;stroke-miterlimit:10;}
	.st3{fill:none;stroke:#FFFFFF;stroke-width:2;stroke-linecap:round;stroke-linejoin:round;stroke-miterlimit:10;}
	.st4{display:inline;fill:#898989;stroke:#FFFFFF;stroke-width:2;stroke-miterlimit:10;}
	.st5{opacity:0.75;clip-path:url(#SVGID_2_);fill:url(#SVGID_3_);}
	.st6{fill:none;stroke:#FFFFFF;stroke-width:2;stroke-miterlimit:10;}
	.st7{opacity:0.15;clip-path:url(#SVGID_5_);fill:url(#SVGID_6_);}
	.st8{opacity:0.75;clip-path:url(#SVGID_8_);fill:url(#SVGID_9_);}
	.st9{fill:#FFFFFF;}
	.st10{opacity:0.3;clip-path:url(#SVGID_11_);fill:url(#SVGID_12_);}
	.st11{opacity:0.3;clip-path:url(#SVGID_14_);fill:url(#SVGID_15_);}
</style>
<g id="레이어_3" class="st0">
	<g class="st1">
		<path class="st2" d="M26.8,15.3c4.2-4.8,1.5-13.6-4.6-13.7c0,0-0.1,0-0.1,0c-3,0-5.6,1.8-7,4.6c-1.5-2.7-4-4.6-7-4.6
			c0,0-0.1,0-0.1,0c-6,0.1-8.7,8.9-4.6,13.7c6.8,7.8,11.7,11.5,11.7,11.5C21.6,21.8,21.3,21.6,26.8,15.3z"/>
		<path class="st3" d="M7.9,1.7"/>
		<path class="st3" d="M15.1,26.8c6.5-5,6.3-5.2,11.7-11.5c4.2-4.8,1.5-13.6-4.6-13.7c0,0-0.1,0-0.1,0c-3,0-5.6,1.8-7,4.6"/>
	</g>
</g>
<g id="레이어_7" class="st0">
	<rect x="-11.1" y="-16.4" class="st4" width="55.9" height="54.8"/>
</g>
<g id="레이어_2" class="st0">
	<g class="st1">
		<g>
			<path class="st3" d="M1.5,26.2c1.1-6.8,6.1-11.9,12-11.9c5.9,0,10.9,5.1,12,11.8L1.5,26.2z"/>
			<g>
				<defs>
					<path id="SVGID_1_" d="M1.5,27.2c-0.3,0-0.6-0.1-0.8-0.4c-0.2-0.2-0.3-0.5-0.2-0.8c1.2-7.4,6.7-12.7,13-12.7
						c6.3,0,11.7,5.3,13,12.7c0,0.3,0,0.6-0.2,0.8c-0.2,0.2-0.5,0.4-0.8,0.4L1.5,27.2C1.5,27.2,1.5,27.2,1.5,27.2z M13.5,15.3
						c-5,0-9.4,4.1-10.8,9.9l21.6-0.1C22.9,19.4,18.5,15.3,13.5,15.3z"/>
				</defs>
				<clipPath id="SVGID_2_">
					<use xlink:href="#SVGID_1_"  style="overflow:visible;"/>
				</clipPath>
				
					<radialGradient id="SVGID_3_" cx="-176.6801" cy="-148.4898" r="20.9373" gradientTransform="matrix(9.787438e-03 -0.7009 0.9999 1.396278e-02 163.5793 -112.9183)" gradientUnits="userSpaceOnUse">
					<stop  offset="0" style="stop-color:#040000"/>
					<stop  offset="1" style="stop-color:#FFFFFF;stop-opacity:0"/>
				</radialGradient>
				<path class="st5" d="M13.6-5.8C25.1-5.7,34.4,1,34.3,9.1c-0.1,8.1-9.6,14.5-21.1,14.4C1.6,23.4-7.7,16.7-7.6,8.6
					C-7.4,0.4,2-6,13.6-5.8z"/>
			</g>
			<circle class="st6" cx="13.5" cy="7.7" r="6.6"/>
			<line class="st3" x1="28.2" y1="12.2" x2="21.4" y2="12.2"/>
			<g>
				<defs>
					<path id="SVGID_4_" d="M28.2,13.2h-6.8c-0.6,0-1-0.4-1-1c0-0.6,0.4-1,1-1h6.8c0.6,0,1,0.4,1,1C29.2,12.8,28.8,13.2,28.2,13.2z"
						/>
				</defs>
				<clipPath id="SVGID_5_">
					<use xlink:href="#SVGID_4_"  style="overflow:visible;"/>
				</clipPath>
				
					<radialGradient id="SVGID_6_" cx="-180.8886" cy="-137.0127" r="6.2073" gradientTransform="matrix(9.787438e-03 -0.7009 0.9999 1.396278e-02 163.5793 -112.9183)" gradientUnits="userSpaceOnUse">
					<stop  offset="0" style="stop-color:#040000"/>
					<stop  offset="1" style="stop-color:#FFFFFF;stop-opacity:0"/>
				</radialGradient>
				<path class="st7" d="M24.9,7.6c3.4,0,6.2,2,6.1,4.4c0,2.4-2.8,4.3-6.3,4.3s-6.2-2-6.1-4.4S21.4,7.6,24.9,7.6z"/>
			</g>
			<line class="st3" x1="24.8" y1="8.8" x2="24.8" y2="15.6"/>
		</g>
	</g>
</g>
<g id="레이어_4" class="st0">
	<g class="st1">
		<path class="st3" d="M25.3,12.5c4-4.1,1.4-11.7-4.4-11.8c0,0-0.1,0-0.1,0c-2.9,0-5.3,1.6-6.7,4c-1.4-2.4-3.9-4-6.7-4
			c0,0-0.1,0-0.1,0C1.4,0.8-1.1,8.4,2.8,12.5c6.5,6.8,11.2,9.9,11.2,9.9C20.3,18.1,20,18,25.3,12.5z"/>
		<g>
			<defs>
				<path id="SVGID_7_" d="M14.1,22.6l-0.5,0.5c-0.2-0.1-4.9-3.3-11.4-10C0,10.9-0.5,7.4,0.7,4.4c1.2-2.8,3.6-4.5,6.4-4.6l0.1,0
					c2.6,0,5.1,1.2,6.7,3.3c1.7-2.1,4.1-3.3,6.7-3.3l0.1,0c2.9,0,5.3,1.8,6.5,4.6c1.3,3,0.7,6.4-1.5,8.7l0,0c-0.7,0.8-1.3,1.4-1.9,2
					c-3.4,3.6-4,4.2-9.5,8L14.1,22.6z M7.3,1.6l-0.1,0c-2.2,0-4,1.3-4.9,3.5c-1,2.4-0.6,5.1,1.1,6.8c5.2,5.4,9.3,8.5,10.6,9.5
					c4.8-3.4,5.4-4,8.7-7.5c0.5-0.6,1.2-1.2,1.9-2l0,0c1.7-1.8,2.2-4.5,1.2-6.8c-0.9-2.2-2.7-3.5-4.9-3.5l-0.1,0
					c-2.5,0-4.7,1.3-6,3.5l-0.7,0.4l-0.7-0.4C12,2.9,9.8,1.6,7.3,1.6z"/>
			</defs>
			<clipPath id="SVGID_8_">
				<use xlink:href="#SVGID_7_"  style="overflow:visible;"/>
			</clipPath>
			
				<radialGradient id="SVGID_9_" cx="0.3958" cy="25.9483" r="18.0969" gradientTransform="matrix(0.7009 9.787438e-03 -1.396278e-02 0.9999 14.5582 -12.5679)" gradientUnits="userSpaceOnUse">
				<stop  offset="0" style="stop-color:#040000"/>
				<stop  offset="1" style="stop-color:#FFFFFF;stop-opacity:0"/>
			</radialGradient>
			<path class="st8" d="M27.2,13.6c-0.1,10-5.9,18-12.9,17.9c-7-0.1-12.6-8.3-12.4-18.3s5.9-18,12.9-17.9
				C21.7-4.6,27.3,3.6,27.2,13.6z"/>
		</g>
		<path class="st3" d="M7.2,0.7"/>
		<path class="st3" d="M14.1,22.4c6.2-4.4,6-4.5,11.2-9.9c4-4.1,1.4-11.7-4.4-11.8c0,0-0.1,0-0.1,0c-2.9,0-5.3,1.6-6.7,4"/>
	</g>
</g>
<g id="레이어_5" class="st0">
	<g class="st1">
		<path class="st2" d="M25.3,12.5c4-4.1,1.4-11.7-4.4-11.8c0,0-0.1,0-0.1,0c-2.9,0-5.3,1.6-6.7,4c-1.4-2.4-3.9-4-6.7-4
			c0,0-0.1,0-0.1,0C1.4,0.8-1.1,8.4,2.8,12.5c6.5,6.8,11.2,9.9,11.2,9.9C20.3,18.1,20,18,25.3,12.5z"/>
		<path class="st3" d="M7.2,0.7"/>
		<path class="st3" d="M14.1,22.4c6.2-4.4,6-4.5,11.2-9.9c4-4.1,1.4-11.7-4.4-11.8c0,0-0.1,0-0.1,0c-2.9,0-5.3,1.6-6.7,4"/>
	</g>
</g>
<g id="레이어_6">
	<g>
		<path class="st9" d="M6.9,23c-0.2,0-0.5-0.1-0.7-0.3L1,17.5c-0.4-0.4-0.4-1,0-1.3c0.4-0.4,1-0.4,1.3,0l5.2,5.2
			c0.4,0.4,0.4,1,0,1.3C7.3,22.9,7.1,23,6.9,23z"/>
		<path class="st9" d="M19.2,10.7c-0.2,0-0.5-0.1-0.7-0.3l-5.2-5.2c-0.4-0.4-0.4-1,0-1.3s1-0.4,1.3,0L19.8,9c0.4,0.4,0.4,1,0,1.3
			C19.7,10.6,19.4,10.7,19.2,10.7z"/>
		<g>
			<defs>
				<path id="SVGID_10_" d="M19.2,10.7c-0.2,0-0.5-0.1-0.7-0.3l-5.2-5.2c-0.4-0.4-0.4-1,0-1.3s1-0.4,1.3,0L19.8,9
					c0.4,0.4,0.4,1,0,1.3C19.7,10.6,19.4,10.7,19.2,10.7z"/>
			</defs>
			<clipPath id="SVGID_11_">
				<use xlink:href="#SVGID_10_"  style="overflow:visible;"/>
			</clipPath>
			<radialGradient id="SVGID_12_" cx="10.6019" cy="3.6541" r="8.9527" gradientUnits="userSpaceOnUse">
				<stop  offset="0" style="stop-color:#040000"/>
				<stop  offset="1" style="stop-color:#FFFFFF;stop-opacity:0"/>
			</radialGradient>
			<circle class="st10" cx="10.6" cy="3.7" r="9"/>
		</g>
		<g>
			<defs>
				<path id="SVGID_13_" d="M6.9,23c-0.2,0-0.5-0.1-0.7-0.3L1,17.5c-0.4-0.4-0.4-1,0-1.3c0.4-0.4,1-0.4,1.3,0l5.2,5.2
					c0.4,0.4,0.4,1,0,1.3C7.3,22.9,7.1,23,6.9,23z"/>
			</defs>
			<clipPath id="SVGID_14_">
				<use xlink:href="#SVGID_13_"  style="overflow:visible;"/>
			</clipPath>
			<radialGradient id="SVGID_15_" cx="9.1997" cy="24.802" r="8.9527" gradientUnits="userSpaceOnUse">
				<stop  offset="0" style="stop-color:#040000"/>
				<stop  offset="1" style="stop-color:#FFFFFF;stop-opacity:0"/>
			</radialGradient>
			<circle class="st11" cx="9.2" cy="24.8" r="9"/>
		</g>
		<path class="st3" d="M6.2,22.7L22.5,6.4c0.3-0.3,0.3-0.9,0-1.2l-3.9-3.9c-0.4-0.4-1-0.4-1.4,0l-1.8,1.8L1,17.5v5.2H6.2z"/>
		<line class="st3" x1="12" y1="22.7" x2="23.1" y2="22.7"/>
		<path class="st3" d="M1,17.5"/>
	</g>
</g>
</svg>
