<?xml version="1.0" encoding="utf-8"?>
<!-- Generator: Adobe Illustrator 22.1.0, SVG Export Plug-In . SVG Version: 6.00 Build 0)  -->
<svg version="1.1" xmlns="http://www.w3.org/2000/svg" xmlns:xlink="http://www.w3.org/1999/xlink" x="0px" y="0px"
	 viewBox="0 0 26 25" style="enable-background:new 0 0 26 25;" xml:space="preserve">
<style type="text/css">
	.st0{fill:none;stroke:#FFFFFF;stroke-width:2;stroke-miterlimit:10;}
	.st1{opacity:0.45;clip-path:url(#SVGID_2_);fill:url(#SVGID_3_);}
	.st2{fill:none;stroke:#FFFFFF;stroke-width:2;stroke-linecap:round;stroke-linejoin:round;stroke-miterlimit:10;}
	.st3{display:none;}
	.st4{display:inline;fill:#FFFFFF;stroke:#FFFFFF;stroke-width:2;stroke-miterlimit:10;}
</style>
<g id="레이어_1">
	<path class="st0" d="M13.2,1.4l3.5,7.1c0,0.1,0.1,0.1,0.2,0.1l7.8,1.1c0.2,0,0.3,0.3,0.1,0.4l-5.7,5.5c-0.1,0.1-0.1,0.1-0.1,0.2
		l1.3,7.8c0,0.2-0.2,0.4-0.4,0.3l-7-3.7c-0.1,0-0.2,0-0.2,0l-7,3.7c-0.2,0.1-0.4-0.1-0.4-0.3l1.3-7.8c0-0.1,0-0.2-0.1-0.2l-5.7-5.5
		C1,10.1,1.1,9.8,1.3,9.8l7.8-1.1c0.1,0,0.2-0.1,0.2-0.1l3.5-7.1C12.9,1.2,13.1,1.2,13.2,1.4z"/>
	<g>
		<defs>
			<path id="SVGID_1_" d="M5.8,25c-0.3,0-0.5-0.1-0.7-0.2c-0.4-0.3-0.6-0.7-0.5-1.2l1.3-7.4l-5.4-5.2C0.1,10.6,0,10.1,0.1,9.6
				c0.1-0.5,0.5-0.8,1-0.8l7.4-1.1L11.9,1c0.2-0.4,0.6-0.7,1.1-0.7c0,0,0,0,0,0c0.5,0,0.9,0.3,1.1,0.7l0,0l3.3,6.7l7.4,1.1
				c0.5,0.1,0.9,0.4,1,0.9c0.1,0.5,0,0.9-0.3,1.3l-5.4,5.2l1.3,7.4c0.1,0.5-0.1,0.9-0.5,1.2c-0.4,0.3-0.9,0.3-1.3,0.1L13,21.4
				l-6.6,3.5C6.2,25,6,25,5.8,25z M19.5,23.9C19.5,23.9,19.5,23.9,19.5,23.9L19.5,23.9z M13,19.3c0.2,0,0.4,0,0.6,0.1l5.6,3
				l-1.1-6.3c-0.1-0.4,0.1-0.8,0.4-1.1l4.6-4.5l-6.3-0.9c-0.4-0.1-0.8-0.3-0.9-0.7L13,3.2l-2.8,5.7C10,9.3,9.6,9.6,9.2,9.6l-6.3,0.9
				L7.5,15c0.3,0.3,0.4,0.7,0.4,1.1l-1.1,6.3l5.6-3C12.6,19.3,12.8,19.3,13,19.3z M8.4,8.1C8.4,8.1,8.4,8.1,8.4,8.1L8.4,8.1z
				 M17.6,8.1L17.6,8.1C17.6,8.1,17.6,8.1,17.6,8.1z M12.3,1.9C12.3,1.9,12.3,1.9,12.3,1.9L12.3,1.9z M13.7,1.9L13.7,1.9
				C13.7,1.9,13.7,1.9,13.7,1.9z"/>
		</defs>
		<clipPath id="SVGID_2_">
			<use xlink:href="#SVGID_1_"  style="overflow:visible;"/>
		</clipPath>
		
			<radialGradient id="SVGID_3_" cx="0.1421" cy="26.9421" r="18.0969" gradientTransform="matrix(0.7009 9.787438e-03 -1.396278e-02 0.9999 13.5834 -12.5369)" gradientUnits="userSpaceOnUse">
			<stop  offset="0" style="stop-color:#040000"/>
			<stop  offset="1" style="stop-color:#FFFFFF;stop-opacity:0"/>
		</radialGradient>
		<path class="st1" d="M26,14.6c-0.1,10-5.9,18-12.9,17.9C6,32.4,0.5,24.2,0.6,14.2s5.9-18,12.9-17.9S26.1,4.6,26,14.6z"/>
	</g>
	<path class="st2" d="M13.2,1.4l3.5,7.1c0,0.1,0.1,0.1,0.2,0.1l7.8,1.1c0.2,0,0.3,0.3,0.1,0.4l-5.7,5.5c-0.1,0.1-0.1,0.1-0.1,0.2
		l1.3,7.8c0,0.2-0.2,0.4-0.4,0.3l-7-3.7c-0.1,0-0.2,0-0.2,0"/>
</g>
<g id="레이어_2" class="st3">
	<path class="st4" d="M13.2,1.3l3.5,7.1c0,0.1,0.1,0.1,0.2,0.1l7.8,1.1c0.2,0,0.3,0.3,0.1,0.4l-5.7,5.5c-0.1,0.1-0.1,0.1-0.1,0.2
		l1.3,7.8c0,0.2-0.2,0.4-0.4,0.3l-7-3.7c-0.1,0-0.2,0-0.2,0l-7,3.7c-0.2,0.1-0.4-0.1-0.4-0.3l1.3-7.8c0-0.1,0-0.2-0.1-0.2l-5.7-5.5
		C1,9.9,1.1,9.7,1.3,9.6l7.8-1.1c0.1,0,0.2-0.1,0.2-0.1l3.5-7.1C12.9,1.1,13.1,1.1,13.2,1.3z"/>
</g>
</svg>
