<svg xmlns="http://www.w3.org/2000/svg" viewBox="0 0 30.17 28.75"><defs><style>.cls-1,.cls-2{fill:none;stroke-linecap:round;stroke-linejoin:round;stroke-width:2px;}.cls-1{stroke:#898989;}.cls-2{stroke:#ffac36;}</style></defs><title>자산 57</title><g id="레이어_2" data-name="레이어 2"><g id="커뮤니티_음식" data-name="커뮤니티 / 음식"><path class="cls-1" d="M3.37,14.49A8,8,0,0,1,1,8.86,7.86,7.86,0,0,1,8.86,1h4.22a7.86,7.86,0,0,1,7.86,7.86,7.45,7.45,0,0,1-.08,1.06H17.09a7.86,7.86,0,0,0-7.78,6.8H8.86s-1.49,2.11-6.35,2.11C2.51,18.83,5.42,16.53,3.37,14.49Z"/><line class="cls-1" x1="15.27" y1="6.79" x2="6.67" y2="6.79"/><line class="cls-1" x1="11.64" y1="11.63" x2="6.67" y2="11.63"/><path class="cls-2" d="M9.23,17.77a7.86,7.86,0,0,0,7.86,7.86h4.22s1.49,2.12,6.35,2.12c0,0-2.9-2.3-.86-4.35a8,8,0,0,0,2.37-5.63,7.85,7.85,0,0,0-7.86-7.85H17.09a7.85,7.85,0,0,0-7.86,7.85"/><line class="cls-2" x1="14.9" y1="15.73" x2="23.5" y2="15.73"/><line class="cls-2" x1="14.9" y1="20.57" x2="23.5" y2="20.57"/></g></g></svg>