<svg xmlns="http://www.w3.org/2000/svg" viewBox="0 0 60.83 14.85"><defs><style>.cls-1{fill:#fff;}</style></defs><title>자산 81</title><g id="레이어_2" data-name="레이어 2"><g id="레이어_36" data-name="레이어 36"><path class="cls-1" d="M5.87,14.77a12.3,12.3,0,0,1-3.95-.65A2.38,2.38,0,0,1,0,11.81c0-1.11.5-1.66,1.5-1.66a10.22,10.22,0,0,1,1.77.58A7.77,7.77,0,0,0,6,11.31c.75,0,1.13-.31,1.13-1a1.21,1.21,0,0,0-.78-1,13.9,13.9,0,0,0-2.15-.88,8.52,8.52,0,0,1-1.73-.69A3.49,3.49,0,0,1,.81,4.63,4.42,4.42,0,0,1,5.25.06a10.7,10.7,0,0,1,3.12.4c1.65.52,2.32,1.29,2,2.31S9.46,4.27,8.6,4.19a9.28,9.28,0,0,1-1.27-.43,5.88,5.88,0,0,0-2-.43.78.78,0,0,0-.89.88q0,.56.75,1a14.64,14.64,0,0,0,2.14.89A9.86,9.86,0,0,1,9,6.8a3.72,3.72,0,0,1,1.63,3.28,4.45,4.45,0,0,1-1.4,3.45A4.85,4.85,0,0,1,5.87,14.77Z"/><path class="cls-1" d="M15.75,12.88c0,1.23-.7,1.84-2.09,1.84s-2.1-.61-2.1-1.84V2.27c0-1.23.7-1.85,2.1-1.85s2.09.62,2.09,1.85Z"/><path class="cls-1" d="M24.88,7.54l3.46,3.82a2.39,2.39,0,0,1,.74,1.51,1.71,1.71,0,0,1-.65,1.27,2.07,2.07,0,0,1-1.4.58,2.19,2.19,0,0,1-1.55-.86L21,9v3.88c0,1.23-.7,1.84-2.1,1.84s-2.1-.61-2.1-1.84V2.27c0-1.23.7-1.85,2.1-1.85S21,1,21,2.27V6.1l4.47-4.83A2.26,2.26,0,0,1,27,.39,2.06,2.06,0,0,1,28.42,1a1.69,1.69,0,0,1,.65,1.28,2.33,2.33,0,0,1-.73,1.5Z"/><path class="cls-1" d="M34.17,5.32A2.27,2.27,0,0,1,33.6,6.9a2.16,2.16,0,0,1-3,0A2.2,2.2,0,0,1,30,5.33a2.27,2.27,0,0,1,.58-1.6,2.15,2.15,0,0,1,3,0A2.28,2.28,0,0,1,34.17,5.32Zm0,7.2a2.25,2.25,0,0,1-.57,1.58,2.15,2.15,0,0,1-3,0A2.24,2.24,0,0,1,30,12.53a2.24,2.24,0,0,1,.58-1.59,2.15,2.15,0,0,1,3,0A2.27,2.27,0,0,1,34.17,12.52Z"/><path class="cls-1" d="M48.51,7.88v3.88a2.59,2.59,0,0,1-1.4,2.2,8.82,8.82,0,0,1-4.59.89,7.37,7.37,0,0,1-5.32-2,7.12,7.12,0,0,1-2.12-5.36,7.17,7.17,0,0,1,2.11-5.38A7.07,7.07,0,0,1,42.28,0a9,9,0,0,1,4.53.93c1,.62,1.56,1.21,1.57,1.75a2.11,2.11,0,0,1-.53,1.46,1.57,1.57,0,0,1-1.1.64,3.75,3.75,0,0,1-1.54-.52,6.23,6.23,0,0,0-2.72-.53,2.93,2.93,0,0,0-2.53,1,4.29,4.29,0,0,0-.82,2.67,3.69,3.69,0,0,0,1,2.64,3.3,3.3,0,0,0,2.62,1c1.11,0,1.67-.44,1.67-1.29a1,1,0,0,0,0-.3H43.7c-1.27,0-1.91-.59-1.91-1.78S42.43,6,43.7,6h3.18C48,6,48.51,6.6,48.51,7.88Z"/><path class="cls-1" d="M60.83,10.85a3.23,3.23,0,0,1-1.72,3,8.31,8.31,0,0,1-7.83,0,3.21,3.21,0,0,1-1.72-3V2.27c0-1.23.69-1.85,2.09-1.85s2.1.62,2.1,1.85v8c0,.81.48,1.21,1.44,1.21s1.44-.4,1.44-1.21v-8c0-1.23.7-1.85,2.1-1.85s2.1.62,2.1,1.85Z"/></g></g></svg>