<?xml version="1.0" encoding="utf-8"?>
<!-- Generator: Adobe Illustrator 22.1.0, SVG Export Plug-In . SVG Version: 6.00 Build 0)  -->
<svg version="1.1" id="레이어_1" xmlns="http://www.w3.org/2000/svg" xmlns:xlink="http://www.w3.org/1999/xlink" x="0px"
	 y="0px" viewBox="0 0 33 35.9" style="enable-background:new 0 0 33 35.9;" xml:space="preserve">
<style type="text/css">
	.st0{display:none;}
	.st1{display:inline;}
	.st2{fill:#FFFFFF;stroke:#FFFFFF;stroke-width:2;stroke-linecap:round;stroke-linejoin:round;stroke-miterlimit:10;}
	.st3{fill:none;stroke:#FFFFFF;stroke-width:2;stroke-linecap:round;stroke-linejoin:round;stroke-miterlimit:10;}
	.st4{display:inline;fill:#898989;stroke:#FFFFFF;stroke-width:2;stroke-miterlimit:10;}
	.st5{opacity:0.75;clip-path:url(#SVGID_2_);fill:url(#SVGID_3_);enable-background:new    ;}
	.st6{fill:none;stroke:#FFFFFF;stroke-width:2;stroke-miterlimit:10;}
	.st7{opacity:0.15;clip-path:url(#SVGID_5_);fill:url(#SVGID_6_);enable-background:new    ;}
	.st8{opacity:0.75;clip-path:url(#SVGID_8_);fill:url(#SVGID_9_);enable-background:new    ;}
	.st9{fill:#FFFFFF;}
	.st10{opacity:0.3;clip-path:url(#SVGID_11_);fill:url(#SVGID_12_);enable-background:new    ;}
	.st11{opacity:0.3;clip-path:url(#SVGID_14_);fill:url(#SVGID_15_);enable-background:new    ;}
	.st12{fill:none;stroke:#FFFFFF;stroke-width:3;stroke-linecap:round;stroke-linejoin:round;stroke-miterlimit:10;}
	.st13{opacity:0.65;clip-path:url(#SVGID_17_);fill:url(#SVGID_18_);enable-background:new    ;}
	.st14{opacity:0.25;clip-path:url(#SVGID_20_);fill:url(#SVGID_21_);enable-background:new    ;}
	.st15{opacity:0.35;clip-path:url(#SVGID_23_);fill:url(#SVGID_24_);enable-background:new    ;}
	.st16{opacity:0.77;clip-path:url(#SVGID_26_);fill:url(#SVGID_27_);enable-background:new    ;}
	.st17{fill:none;stroke:#FFFFFF;stroke-width:3;stroke-miterlimit:10;}
	.st18{display:inline;fill:none;stroke:#FFFFFF;stroke-width:3;stroke-linecap:round;stroke-linejoin:round;stroke-miterlimit:10;}
</style>
<g id="레이어_3" class="st0">
	<g class="st1">
		<path class="st2" d="M26.1,26.7c4.2-4.8,1.5-13.6-4.6-13.7h-0.1c-3,0-5.6,1.8-7,4.6c-1.5-2.7-4-4.6-7-4.6H7.3
			c-6,0.1-8.7,8.9-4.6,13.7c6.8,7.8,11.7,11.5,11.7,11.5C20.9,33.2,20.6,33,26.1,26.7z"/>
		<path class="st3" d="M7.2,13.1"/>
		<path class="st3" d="M14.4,38.2c6.5-5,6.3-5.2,11.7-11.5c4.2-4.8,1.5-13.6-4.6-13.7h-0.1c-3,0-5.6,1.8-7,4.6"/>
	</g>
</g>
<g id="레이어_7" class="st0">
	<rect x="-11.8" y="-4.9" class="st4" width="55.9" height="54.8"/>
</g>
<g id="레이어_2_1_" class="st0">
	<g class="st1">
		<g>
			<path class="st3" d="M0.8,37.6c1.1-6.8,6.1-11.9,12-11.9s10.9,5.1,12,11.8L0.8,37.6z"/>
			<g>
				<g>
					<defs>
						<path id="SVGID_1_" d="M0.8,38.6c-0.3,0-0.6-0.1-0.8-0.4c-0.2-0.2-0.3-0.5-0.2-0.8C1,30,6.5,24.7,12.8,24.7s11.7,5.3,13,12.7
							c0,0.3,0,0.6-0.2,0.8s-0.5,0.4-0.8,0.4H0.8L0.8,38.6z M12.8,26.7c-5,0-9.4,4.1-10.8,9.9l21.6-0.1
							C22.2,30.8,17.8,26.7,12.8,26.7z"/>
					</defs>
					<clipPath id="SVGID_2_">
						<use xlink:href="#SVGID_1_"  style="overflow:visible;"/>
					</clipPath>
					
						<radialGradient id="SVGID_3_" cx="-170.7298" cy="169.1444" r="20.9626" gradientTransform="matrix(9.787438e-03 -0.7009 -0.9999 -1.396278e-02 183.4485 -97.0036)" gradientUnits="userSpaceOnUse">
						<stop  offset="0" style="stop-color:#040000"/>
						<stop  offset="1" style="stop-color:#FFFFFF;stop-opacity:0"/>
					</radialGradient>
					<path class="st5" d="M12.9,5.6c11.6,0.2,20.8,6.9,20.7,15S24,35.1,12.5,35C0.9,34.8-8.4,28.1-8.3,20S1.3,5.4,12.9,5.6z"/>
				</g>
			</g>
			<circle class="st6" cx="12.8" cy="19.1" r="6.6"/>
			<line class="st3" x1="27.5" y1="23.7" x2="20.7" y2="23.7"/>
			<g>
				<g>
					<defs>
						<path id="SVGID_4_" d="M27.5,24.7h-6.8c-0.6,0-1-0.4-1-1s0.4-1,1-1h6.8c0.6,0,1,0.4,1,1C28.5,24.2,28.1,24.7,27.5,24.7z"/>
					</defs>
					<clipPath id="SVGID_5_">
						<use xlink:href="#SVGID_4_"  style="overflow:visible;"/>
					</clipPath>
					
						<radialGradient id="SVGID_6_" cx="-174.8995" cy="157.6395" r="6.2073" gradientTransform="matrix(9.787438e-03 -0.7009 -0.9999 -1.396278e-02 183.4485 -97.0036)" gradientUnits="userSpaceOnUse">
						<stop  offset="0" style="stop-color:#040000"/>
						<stop  offset="1" style="stop-color:#FFFFFF;stop-opacity:0"/>
					</radialGradient>
					<path class="st7" d="M24.2,19c3.4,0,6.2,2,6.1,4.4c0,2.4-2.8,4.3-6.3,4.3s-6.2-2-6.1-4.4C17.9,20.9,20.7,19,24.2,19z"/>
				</g>
			</g>
			<line class="st3" x1="24.1" y1="20.3" x2="24.1" y2="27.1"/>
		</g>
	</g>
</g>
<g id="레이어_4" class="st0">
	<g class="st1">
		<path class="st3" d="M24.6,23.9c4-4.1,1.4-11.7-4.4-11.8h-0.1c-2.9,0-5.3,1.6-6.7,4c-1.4-2.4-3.9-4-6.7-4H6.6
			c-5.8,0.1-8.3,7.7-4.4,11.8c6.5,6.8,11.2,9.9,11.2,9.9C19.6,29.5,19.3,29.4,24.6,23.9z"/>
		<g>
			<g>
				<defs>
					<path id="SVGID_7_" d="M13.4,34l-0.5,0.5c-0.2-0.1-4.9-3.3-11.4-10c-2.2-2.2-2.7-5.7-1.5-8.7c1.2-2.8,3.6-4.5,6.4-4.6h0.1
						c2.6,0,5.1,1.2,6.7,3.3c1.7-2.1,4.1-3.3,6.7-3.3H20c2.9,0,5.3,1.8,6.5,4.6c1.3,3,0.7,6.4-1.5,8.7l0,0c-0.7,0.8-1.3,1.4-1.9,2
						c-3.4,3.6-4,4.2-9.5,8L13.4,34z M6.6,13L6.6,13c-2.3,0-4.1,1.3-5,3.5c-1,2.4-0.6,5.1,1.1,6.8c5.2,5.4,9.3,8.5,10.6,9.5
						c4.8-3.4,5.4-4,8.7-7.5c0.5-0.6,1.2-1.2,1.9-2l0,0c1.7-1.8,2.2-4.5,1.2-6.8c-0.9-2.2-2.7-3.5-4.9-3.5h-0.1
						c-2.5,0-4.7,1.3-6,3.5l-0.7,0.4l-0.7-0.4C11.3,14.3,9.1,13,6.6,13z"/>
				</defs>
				<clipPath id="SVGID_8_">
					<use xlink:href="#SVGID_7_"  style="overflow:visible;"/>
				</clipPath>
				
					<radialGradient id="SVGID_9_" cx="-0.7739" cy="-2.3807" r="18.0748" gradientTransform="matrix(0.7009 9.787438e-03 1.396278e-02 -0.9999 14.3757 22.4271)" gradientUnits="userSpaceOnUse">
					<stop  offset="0" style="stop-color:#040000"/>
					<stop  offset="1" style="stop-color:#FFFFFF;stop-opacity:0"/>
				</radialGradient>
				<path class="st8" d="M26.5,25c-0.1,10-5.9,18-12.9,17.9C6.5,42.8,1,34.6,1.1,24.6S7,6.6,14,6.7C21,6.8,26.6,15,26.5,25z"/>
			</g>
		</g>
		<path class="st3" d="M6.5,12.1"/>
		<path class="st3" d="M13.4,33.9c6.2-4.4,6-4.5,11.2-9.9c4-4.1,1.4-11.7-4.4-11.8h-0.1c-2.9,0-5.3,1.6-6.7,4"/>
	</g>
</g>
<g id="레이어_5" class="st0">
	<g class="st1">
		<path class="st2" d="M24.6,23.9c4-4.1,1.4-11.7-4.4-11.8h-0.1c-2.9,0-5.3,1.6-6.7,4c-1.4-2.4-3.9-4-6.7-4H6.6
			c-5.8,0.1-8.3,7.7-4.4,11.8c6.5,6.8,11.2,9.9,11.2,9.9C19.6,29.5,19.3,29.4,24.6,23.9z"/>
		<path class="st3" d="M6.5,12.1"/>
		<path class="st3" d="M13.4,33.9c6.2-4.4,6-4.5,11.2-9.9c4-4.1,1.4-11.7-4.4-11.8h-0.1c-2.9,0-5.3,1.6-6.7,4"/>
	</g>
</g>
<g id="레이어_6" class="st0">
	<g class="st1">
		<path class="st9" d="M6.2,34.4c-0.2,0-0.5-0.1-0.7-0.3l-5.2-5.2c-0.4-0.4-0.4-1,0-1.3c0.4-0.4,1-0.4,1.3,0l5.2,5.2
			c0.4,0.4,0.4,1,0,1.3C6.7,34.3,6.4,34.4,6.2,34.4z"/>
		<path class="st9" d="M18.5,22.1c-0.2,0-0.5-0.1-0.7-0.3l-5.2-5.2c-0.4-0.4-0.4-1,0-1.3s1-0.4,1.3,0l5.2,5.2c0.4,0.4,0.4,1,0,1.3
			C19,22,18.7,22.1,18.5,22.1z"/>
		<g>
			<g>
				<defs>
					<path id="SVGID_10_" d="M18.5,22.1c-0.2,0-0.5-0.1-0.7-0.3l-5.2-5.2c-0.4-0.4-0.4-1,0-1.3s1-0.4,1.3,0l5.2,5.2
						c0.4,0.4,0.4,1,0,1.3C19,22,18.7,22.1,18.5,22.1z"/>
				</defs>
				<clipPath id="SVGID_11_">
					<use xlink:href="#SVGID_10_"  style="overflow:visible;"/>
				</clipPath>
				
					<radialGradient id="SVGID_12_" cx="9.9" cy="19.9" r="8.9637" gradientTransform="matrix(1 0 0 -1 0 35)" gradientUnits="userSpaceOnUse">
					<stop  offset="0" style="stop-color:#040000"/>
					<stop  offset="1" style="stop-color:#FFFFFF;stop-opacity:0"/>
				</radialGradient>
				<circle class="st10" cx="9.9" cy="15.1" r="9"/>
			</g>
		</g>
		<g>
			<g>
				<defs>
					<path id="SVGID_13_" d="M6.2,34.4c-0.2,0-0.5-0.1-0.7-0.3l-5.2-5.2c-0.4-0.4-0.4-1,0-1.3c0.4-0.4,1-0.4,1.3,0l5.2,5.2
						c0.4,0.4,0.4,1,0,1.3C6.7,34.3,6.4,34.4,6.2,34.4z"/>
				</defs>
				<clipPath id="SVGID_14_">
					<use xlink:href="#SVGID_13_"  style="overflow:visible;"/>
				</clipPath>
				
					<radialGradient id="SVGID_15_" cx="8.5" cy="-1.231" r="8.9541" gradientTransform="matrix(1 0 0 -1 0 35)" gradientUnits="userSpaceOnUse">
					<stop  offset="0" style="stop-color:#040000"/>
					<stop  offset="1" style="stop-color:#FFFFFF;stop-opacity:0"/>
				</radialGradient>
				<circle class="st11" cx="8.5" cy="36.2" r="9"/>
			</g>
		</g>
		<path class="st3" d="M5.5,34.1l16.2-16.2c0.3-0.3,0.3-0.9,0-1.2l-3.9-3.9c-0.4-0.4-1-0.4-1.4,0l-1.8,1.8L0.3,28.9v5.2H5.5z"/>
		<line class="st3" x1="11.3" y1="34.1" x2="22.4" y2="34.1"/>
		<path class="st3" d="M0.3,28.9"/>
	</g>
</g>
<g id="레이어_8" class="st0">
	<g class="st1">
		<polyline class="st12" points="28.2,37.8 12,21.6 27.9,5.7 12,21.6 		"/>
	</g>
	<g class="st1">
		<g>
			<defs>
				<path id="SVGID_16_" d="M28.2,39.3c-0.4,0-0.8-0.1-1.1-0.4L10.9,22.7c-0.6-0.6-0.6-1.5,0-2.1L26.8,4.7c0.6-0.6,1.5-0.6,2.1,0
					s0.6,1.5,0,2.1L14.1,21.6l15.1,15.1c0.6,0.6,0.6,1.5,0,2.1C28.9,39.2,28.5,39.3,28.2,39.3z"/>
			</defs>
			<clipPath id="SVGID_17_">
				<use xlink:href="#SVGID_16_"  style="overflow:visible;"/>
			</clipPath>
			
				<radialGradient id="SVGID_18_" cx="-11.1648" cy="7.3063" r="18.7907" gradientTransform="matrix(0.8976 9.698372e-02 0.1074 -0.9942 13.1876 27.3468)" gradientUnits="userSpaceOnUse">
				<stop  offset="0" style="stop-color:#040000"/>
				<stop  offset="1" style="stop-color:#FFFFFF;stop-opacity:0"/>
			</radialGradient>
			<path class="st13" d="M20.8,20.8c-1.1,10.3-9.6,17.9-18.9,16.9s-16-10.2-14.9-20.5S-3.4-0.7,6,0.3S21.9,10.5,20.8,20.8z"/>
		</g>
	</g>
	<g class="st1">
		<path class="st12" d="M12,21.6"/>
		<line class="st12" x1="28.2" y1="37.8" x2="12" y2="21.6"/>
	</g>
</g>
<g id="레이어_9">
	<g id="로그아웃_1_">
		<polyline class="st12" points="8.2,9.4 8.2,1.5 31.5,1.5 31.5,34.4 8.2,34.4 8.2,26.5 		"/>
		<polyline class="st12" points="15.7,18.3 1.5,18.3 6,13.8 		"/>
		<g>
			<g>
				<defs>
					<path id="SVGID_19_" d="M15.7,19.8H1.5c-0.6,0-1.2-0.4-1.4-0.9c-0.2-0.6-0.1-1.2,0.3-1.6l4.5-4.5c0.6-0.6,1.5-0.6,2.1,0
						s0.6,1.5,0,2.1l-1.9,1.9h10.6c0.8,0,1.5,0.7,1.5,1.5S16.5,19.8,15.7,19.8z"/>
				</defs>
				<clipPath id="SVGID_20_">
					<use xlink:href="#SVGID_19_"  style="overflow:visible;"/>
				</clipPath>
				
					<radialGradient id="SVGID_21_" cx="-14.5875" cy="7.9783" r="18.7907" gradientTransform="matrix(0.8976 9.698372e-02 0.1074 -0.9942 13.1876 27.3468)" gradientUnits="userSpaceOnUse">
					<stop  offset="0" style="stop-color:#040000"/>
					<stop  offset="1" style="stop-color:#FFFFFF;stop-opacity:0"/>
				</radialGradient>
				<path class="st14" d="M17.8,19.8C16.7,30.2,8.2,37.7-1.1,36.7s-16-10.2-14.9-20.5S-6.4-1.7,3-0.7S18.9,9.5,17.8,19.8z"/>
			</g>
		</g>
		<line class="st12" x1="1.5" y1="18.3" x2="6" y2="22.8"/>
	</g>
	<line class="st12" x1="6" y1="13.8" x2="1.5" y2="18.3"/>
	<g>
		<g>
			<defs>
				<path id="SVGID_22_" d="M31.5,35.9H8.2c-0.8,0-1.5-0.7-1.5-1.5v-7.9c0-0.8,0.7-1.5,1.5-1.5s1.5,0.7,1.5,1.5v6.4H30V3H9.7v6.4
					c0,0.8-0.7,1.5-1.5,1.5s-1.5-0.7-1.5-1.5V1.5C6.7,0.7,7.4,0,8.2,0h23.3C32.3,0,33,0.7,33,1.5v32.9C33,35.2,32.3,35.9,31.5,35.9z
					"/>
			</defs>
			<clipPath id="SVGID_23_">
				<use xlink:href="#SVGID_22_"  style="overflow:visible;"/>
			</clipPath>
			
				<radialGradient id="SVGID_24_" cx="-14.2983" cy="9.3137" r="18.789" gradientTransform="matrix(0.8976 9.698372e-02 0.1074 -0.9942 13.1876 27.3468)" gradientUnits="userSpaceOnUse">
				<stop  offset="0" style="stop-color:#040000"/>
				<stop  offset="1" style="stop-color:#FFFFFF;stop-opacity:0"/>
			</radialGradient>
			<path class="st15" d="M18.2,18.5C17.1,28.9,8.7,36.4-0.7,35.4c-9.3-1-16-10.2-14.9-20.5S-5.9-3,3.4-2S19.3,8.2,18.2,18.5z"/>
		</g>
	</g>
</g>
<g id="레이어_11" class="st0">
	<g class="st1">
		<line class="st12" x1="22.6" y1="34.2" x2="12.5" y2="24.1"/>
		<path class="st12" d="M-5.4,14.3c0-2.6,1.2-5,3.1-6.5"/>
		<g>
			<g>
				<defs>
					<path id="SVGID_25_" d="M22.6,35.7c-0.4,0-0.8-0.1-1.1-0.4L11.4,25.1c-0.6-0.6-0.6-1.5,0-2.1s1.5-0.6,2.1,0l10.1,10.1
						c0.6,0.6,0.6,1.5,0,2.1C23.4,35.5,23,35.7,22.6,35.7z"/>
				</defs>
				<clipPath id="SVGID_26_">
					<use xlink:href="#SVGID_25_"  style="overflow:visible;"/>
				</clipPath>
				
					<radialGradient id="SVGID_27_" cx="-5.1045" cy="7.3947" r="18.8159" gradientTransform="matrix(0.8976 9.698372e-02 0.1074 -0.9942 13.1876 27.3468)" gradientUnits="userSpaceOnUse">
					<stop  offset="0" style="stop-color:#040000"/>
					<stop  offset="1" style="stop-color:#FFFFFF;stop-opacity:0"/>
				</radialGradient>
				<path class="st16" d="M26.3,21.3c-1.1,10.3-9.6,17.9-18.9,16.9S-8.6,28-7.5,17.7S2.1-0.2,11.4,0.8S27.4,11,26.3,21.3z"/>
			</g>
		</g>
		<circle class="st17" cx="2.9" cy="14.3" r="13.7"/>
	</g>
	<line class="st18" x1="1.5" y1="20.3" x2="6" y2="15.8"/>
</g>
</svg>
