<?xml version="1.0" encoding="utf-8"?>
<!-- Generator: Adobe Illustrator 22.1.0, SVG Export Plug-In . SVG Version: 6.00 Build 0)  -->
<svg version="1.1" id="레이어_2" xmlns="http://www.w3.org/2000/svg" xmlns:xlink="http://www.w3.org/1999/xlink" x="0px"
	 y="0px" viewBox="0 0 37.4 46.6" style="enable-background:new 0 0 37.4 46.6;" xml:space="preserve">
<style type="text/css">
	.st0{fill:url(#SVGID_1_);}
	.st1{fill:#FFFFFF;}
	.st2{filter:url(#Adobe_OpacityMaskFilter);}
	.st3{opacity:0.75;mask:url(#SVGID_2_);}
	.st4{fill:#7C7C7C;}
	.st5{filter:url(#Adobe_OpacityMaskFilter_1_);}
	.st6{opacity:0.25;mask:url(#SVGID_3_);}
	.st7{filter:url(#Adobe_OpacityMaskFilter_2_);}
	.st8{opacity:0.75;}
	.st9{fill:url(#SVGID_4_);}
</style>
<g>
	
		<image style="overflow:visible;opacity:0.3;" width="46" height="60" xlink:href="E0773B26.png"  transform="matrix(1 0 0 1 -3.625 -4.4375)">
	</image>
	<g>
		<linearGradient id="SVGID_1_" gradientUnits="userSpaceOnUse" x1="30.9001" y1="11.185" x2="7.1613" y2="34.9238">
			<stop  offset="0" style="stop-color:#FFD571"/>
			<stop  offset="0.3425" style="stop-color:#FFAD38"/>
			<stop  offset="1" style="stop-color:#FFAC36"/>
		</linearGradient>
		<path class="st0" d="M31.7,25.3L31.7,25.3c0.9-1.9,1.5-4,1.5-6.2c0-7.6-6.1-13.7-13.7-13.7S5.7,11.5,5.7,19.1
			c0,2.2,0.5,4.3,1.5,6.2h0l0.1,0.2c0,0.1,0.1,0.2,0.1,0.2l11.2,20.6l11.9-19.2C30.9,26.6,31.3,26,31.7,25.3L31.7,25.3z"/>
	</g>
</g>
<g>
	<g>
		<g>
			<circle class="st1" cx="19.4" cy="19.2" r="8.5"/>
		</g>
		<defs>
			<filter id="Adobe_OpacityMaskFilter" filterUnits="userSpaceOnUse" x="10.9" y="10.7" width="17.1" height="17.1">
				
					<feColorMatrix  type="matrix" values="-1 0 0 0 1  0 -1 0 0 1  0 0 -1 0 1  0 0 0 1 0" color-interpolation-filters="sRGB" result="source"/>
			</filter>
		</defs>
		<mask maskUnits="userSpaceOnUse" x="10.9" y="10.7" width="17.1" height="17.1" id="SVGID_2_">
			<g class="st2">
				<image style="overflow:visible;" width="22" height="22" xlink:href="E0773B2B.jpg"  transform="matrix(1 0 0 1 8.375 8.5625)">
				</image>
			</g>
		</mask>
		<g class="st3">
			<circle class="st4" cx="19.4" cy="19.2" r="8.5"/>
		</g>
	</g>
	<defs>
		<filter id="Adobe_OpacityMaskFilter_1_" filterUnits="userSpaceOnUse" x="10.9" y="10.7" width="17.1" height="17.1">
			
				<feColorMatrix  type="matrix" values="-1 0 0 0 1  0 -1 0 0 1  0 0 -1 0 1  0 0 0 1 0" color-interpolation-filters="sRGB" result="source"/>
		</filter>
	</defs>
	<mask maskUnits="userSpaceOnUse" x="10.9" y="10.7" width="17.1" height="17.1" id="SVGID_3_">
		<g class="st5">
			<image style="overflow:visible;" width="22" height="22" xlink:href="E0773B2C.jpg"  transform="matrix(1 0 0 1 8.375 8.5625)">
			</image>
		</g>
	</mask>
	<g class="st6">
		<g>
			<circle class="st4" cx="19.4" cy="19.2" r="8.5"/>
		</g>
		<defs>
			<filter id="Adobe_OpacityMaskFilter_2_" filterUnits="userSpaceOnUse" x="10.9" y="10.7" width="17.1" height="17.1">
				
					<feColorMatrix  type="matrix" values="-1 0 0 0 1  0 -1 0 0 1  0 0 -1 0 1  0 0 0 1 0" color-interpolation-filters="sRGB" result="source"/>
			</filter>
		</defs>
		<mask maskUnits="userSpaceOnUse" x="10.9" y="10.7" width="17.1" height="17.1" id="SVGID_3_">
			<g class="st7">
				<image style="overflow:visible;" width="22" height="22" xlink:href="E0773B2F.jpg"  transform="matrix(1 0 0 1 8.375 8.5625)">
				</image>
			</g>
		</mask>
		<g class="st8">
			<circle class="st4" cx="19.4" cy="19.2" r="8.5"/>
		</g>
	</g>
</g>
<linearGradient id="SVGID_4_" gradientUnits="userSpaceOnUse" x1="15.5577" y1="20.4399" x2="23.1875" y2="20.4399">
	<stop  offset="0" style="stop-color:#FFD571"/>
	<stop  offset="1" style="stop-color:#FFAC36"/>
</linearGradient>
<polygon class="st9" points="19.4,22.4 15.6,18.5 23.2,18.5 "/>
</svg>
