<?xml version="1.0" encoding="utf-8"?>
<!-- Generator: Adobe Illustrator 22.1.0, SVG Export Plug-In . SVG Version: 6.00 Build 0)  -->
<svg version="1.1" xmlns="http://www.w3.org/2000/svg" xmlns:xlink="http://www.w3.org/1999/xlink" x="0px" y="0px"
	 viewBox="0 0 29.7 27.1" style="enable-background:new 0 0 29.7 27.1;" xml:space="preserve">
<style type="text/css">
	.st0{fill:#FFFFFF;stroke:#FFFFFF;stroke-width:2;stroke-linecap:round;stroke-linejoin:round;stroke-miterlimit:10;}
	.st1{fill:none;stroke:#FFFFFF;stroke-width:2;stroke-linecap:round;stroke-linejoin:round;stroke-miterlimit:10;}
	.st2{display:none;}
	.st3{display:inline;}
	.st4{opacity:0.75;clip-path:url(#SVGID_2_);fill:url(#SVGID_3_);}
	.st5{fill:none;stroke:#FFFFFF;stroke-width:2;stroke-miterlimit:10;}
	.st6{opacity:0.15;clip-path:url(#SVGID_5_);fill:url(#SVGID_6_);}
</style>
<g id="레이어_3">
	<g>
		<path class="st0" d="M26.6,14.7C30.8,9.9,28.1,1.1,22.1,1c0,0-0.1,0-0.1,0c-3,0-5.6,1.8-7,4.6c-1.5-2.7-4-4.6-7-4.6
			c0,0-0.1,0-0.1,0c-6,0.1-8.7,8.9-4.6,13.7c6.8,7.8,11.7,11.5,11.7,11.5C21.4,21.1,21.2,21,26.6,14.7z"/>
		<path class="st1" d="M7.7,1"/>
		<path class="st1" d="M14.9,26.1c6.5-5,6.3-5.2,11.7-11.5C30.8,9.9,28.1,1.1,22.1,1c0,0-0.1,0-0.1,0c-3,0-5.6,1.8-7,4.6"/>
	</g>
</g>
<g id="레이어_2" class="st2">
	<g class="st3">
		<g>
			<path class="st1" d="M1.3,25.6c1.1-6.8,6.1-11.9,12-11.9c5.9,0,10.9,5.1,12,11.8L1.3,25.6z"/>
			<g>
				<defs>
					<path id="SVGID_1_" d="M1.3,26.6c-0.3,0-0.6-0.1-0.8-0.4c-0.2-0.2-0.3-0.5-0.2-0.8C1.5,18,7,12.7,13.3,12.7
						c6.3,0,11.7,5.3,13,12.7c0,0.3,0,0.6-0.2,0.8c-0.2,0.2-0.5,0.4-0.8,0.4L1.3,26.6C1.3,26.6,1.3,26.6,1.3,26.6z M13.3,14.7
						c-5,0-9.4,4.1-10.8,9.9l21.6-0.1C22.7,18.7,18.3,14.7,13.3,14.7z"/>
				</defs>
				<clipPath id="SVGID_2_">
					<use xlink:href="#SVGID_1_"  style="overflow:visible;"/>
				</clipPath>
				
					<radialGradient id="SVGID_3_" cx="-176.8629" cy="-149.1395" r="20.9373" gradientTransform="matrix(9.787438e-03 -0.7009 0.9999 1.396278e-02 164.0479 -113.6871)" gradientUnits="userSpaceOnUse">
					<stop  offset="0" style="stop-color:#040000"/>
					<stop  offset="1" style="stop-color:#FFFFFF;stop-opacity:0"/>
				</radialGradient>
				<path class="st4" d="M13.4-6.5C25-6.3,34.2,0.4,34.1,8.5C34,16.6,24.5,23,13,22.9C1.4,22.7-7.9,16-7.7,7.9S1.8-6.6,13.4-6.5z"/>
			</g>
			<circle class="st5" cx="13.3" cy="7" r="6.6"/>
			<line class="st1" x1="28" y1="11.6" x2="21.2" y2="11.6"/>
			<g>
				<defs>
					<path id="SVGID_4_" d="M28,12.6h-6.8c-0.6,0-1-0.4-1-1c0-0.6,0.4-1,1-1H28c0.6,0,1,0.4,1,1C29,12.1,28.6,12.6,28,12.6z"/>
				</defs>
				<clipPath id="SVGID_5_">
					<use xlink:href="#SVGID_4_"  style="overflow:visible;"/>
				</clipPath>
				
					<radialGradient id="SVGID_6_" cx="-181.0714" cy="-137.6624" r="6.2073" gradientTransform="matrix(9.787438e-03 -0.7009 0.9999 1.396278e-02 164.0479 -113.6871)" gradientUnits="userSpaceOnUse">
					<stop  offset="0" style="stop-color:#040000"/>
					<stop  offset="1" style="stop-color:#FFFFFF;stop-opacity:0"/>
				</radialGradient>
				<path class="st6" d="M24.7,7c3.4,0,6.2,2,6.1,4.4c0,2.4-2.8,4.3-6.3,4.3c-3.4,0-6.2-2-6.1-4.4C18.5,8.8,21.3,6.9,24.7,7z"/>
			</g>
			<line class="st1" x1="24.6" y1="8.2" x2="24.6" y2="15"/>
		</g>
	</g>
</g>
</svg>
