<svg xmlns="http://www.w3.org/2000/svg" viewBox="0 0 212.99 209.84"><defs><style>.cls-1,.cls-2,.cls-3,.cls-6,.cls-7{fill:none;stroke-linecap:round;stroke-width:15px;}.cls-1,.cls-2,.cls-6{stroke:#d4d4d4;}.cls-1,.cls-3,.cls-6,.cls-7{stroke-miterlimit:10;}.cls-2{stroke-linejoin:round;}.cls-3{stroke:#ffac36;}.cls-4{fill:#ffd571;}.cls-5{fill:#ffac36;}.cls-6{opacity:0.5;}.cls-7{stroke:#ffd571;}</style></defs><title>자산 44</title><g id="레이어_2" data-name="레이어 2"><g id="로고2"><path class="cls-1" d="M81,200.92a98.26,98.26,0,1,1,45.64,1"/><path class="cls-2" d="M90.89,167.17A63.12,63.12,0,0,1,63.28,59.26"/><path class="cls-2" d="M126.17,165.61A63.12,63.12,0,0,0,105.85,42.74a62.26,62.26,0,0,0-8.13.52c-1.91.24-5,.9-6.83,1.3"/><line class="cls-3" x1="90.89" y1="44.56" x2="90.89" y2="167.17"/><ellipse class="cls-4" cx="124.42" cy="92.94" rx="17.21" ry="25.36"/><path class="cls-5" d="M98.33,169.87a4.48,4.48,0,0,1-.27,1.47,6.92,6.92,0,0,1-7.37,4.49c-11.53-1.24-21.3-8.67-21.3-47.68,0-25.95,13-47,28.94-47Z"/><line class="cls-6" x1="124.42" y1="202.34" x2="205.49" y2="202.34"/><line class="cls-7" x1="124.42" y1="84.58" x2="124.42" y2="202.34"/></g></g></svg>