<svg xmlns="http://www.w3.org/2000/svg" viewBox="0 0 17.23 21.53"><defs><style>.cls-1{fill:none;stroke:#898989;stroke-linecap:round;stroke-linejoin:round;stroke-width:2px;}</style></defs><title>자산 54</title><g id="레이어_2" data-name="레이어 2"><g id="메인_아이콘" data-name="메인 아이콘"><g id="레이어_27" data-name="레이어 27"><path class="cls-1" d="M15.6,20.48l-6.78-4a.4.4,0,0,0-.42,0l-6.78,4A.41.41,0,0,1,1,20.12V1.41A.42.42,0,0,1,1.41,1h14.4a.42.42,0,0,1,.42.41V20.12A.42.42,0,0,1,15.6,20.48Z"/><polygon class="cls-1" points="8.61 3.97 10.23 7.25 13.84 7.77 11.23 10.32 11.84 13.91 8.61 12.21 5.38 13.91 6 10.32 3.39 7.77 7 7.25 8.61 3.97"/></g></g></g></svg>